<svg xmlns="http://www.w3.org/2000/svg" viewBox="0 0 5.843 4.3821"><g id="Capa_2" data-name="Capa 2"><g id="Layer_1" data-name="Layer 1"><path d="M5.1126,0H.73A.73.73,0,0,0,0,.73V3.6519a.73.73,0,0,0,.73.73H5.1126a.73.73,0,0,0,.73-.73V.73A.73.73,0,0,0,5.1126,0ZM3.91,1.9489,5.4563.624A.35.35,0,0,1,5.4777.73V3.6519a.3517.3517,0,0,1-.0146.0715ZM5.1126.3653A.36.36,0,0,1,5.1811.379l-2.26,1.9368L.6618.379A.3578.3578,0,0,1,.73.3653ZM.38,3.723a.34.34,0,0,1-.0144-.0711V.73A.3528.3528,0,0,1,.3868.624L1.9322,1.9487ZM.73,4.0169A.3542.3542,0,0,1,.6261,3.996L2.21,2.1864l.5931.5082a.1813.1813,0,0,0,.2375,0l.5931-.5082,1.5834,1.81a.35.35,0,0,1-.104.0209Z" style="fill:#ffb83b"/></g></g></svg>