<svg xmlns="http://www.w3.org/2000/svg" viewBox="0 0 66.1623 10.5697"><g id="Capa_2" data-name="Capa 2"><g id="Layer_1" data-name="Layer 1"><path d="M27.4547,1.5757a2.3042,2.3042,0,0,1,.7481,1.72,2.3045,2.3045,0,0,1-.7481,1.7207,2.6675,2.6675,0,0,1-3.644,0,2.3029,2.3029,0,0,1-.748-1.7207,2.3027,2.3027,0,0,1,.748-1.72,2.6672,2.6672,0,0,1,3.644,0Zm-2.7377.7788a1.2846,1.2846,0,0,0-.37.9414,1.29,1.29,0,0,0,.37.9434,1.304,1.304,0,0,0,1.833,0,1.2948,1.2948,0,0,0,.3686-.9434,1.2893,1.2893,0,0,0-.3686-.9414,1.3075,1.3075,0,0,0-1.833,0Z" transform="translate(0 -0.3371)" style="fill:#fff"/><path d="M31.2028,5.604h-2.208V.9883H31.071a1.7256,1.7256,0,0,1,1.146.3638A1.0718,1.0718,0,0,1,32.5905,2.57a.8864.8864,0,0,1-.1484.2754,1.7347,1.7347,0,0,1-.1719.1782.7262.7262,0,0,1-.15.1079l-.0611.0323c.0215.0088.0508.021.0884.0371a1.8057,1.8057,0,0,1,.1983.1128,1.3417,1.3417,0,0,1,.2509.2011,1.0823,1.0823,0,0,1,.1978.3091,1.0273,1.0273,0,0,1,.0884.4278,1.2171,1.2171,0,0,1-.4712.9462A1.7874,1.7874,0,0,1,31.2028,5.604ZM30.9391,1.98h-.6924v.7886h.6924a.4379.4379,0,0,0,.312-.1079.3722.3722,0,0,0,.1162-.2862.3733.3733,0,0,0-.1162-.2866A.44.44,0,0,0,30.9391,1.98Zm-.6924,2.6362h.8565a.4969.4969,0,0,0,.3574-.1318.4627.4627,0,0,0,0-.66.4951.4951,0,0,0-.3574-.1323h-.8565Z" transform="translate(0 -0.3371)" style="fill:#fff"/><path d="M35.5871,4.1875a.2741.2741,0,0,0-.1192-.2187.9926.9926,0,0,0-.3076-.1543c-.1255-.0411-.2646-.0845-.4184-.13a3.4039,3.4039,0,0,1-.4571-.1753,2.1552,2.1552,0,0,1-.415-.2544,1.0935,1.0935,0,0,1-.3076-.3994,1.34,1.34,0,0,1-.1192-.5791,1.2833,1.2833,0,0,1,.4912-.9932A1.8474,1.8474,0,0,1,35.1911.8564a2.49,2.49,0,0,1,.5957.0689,1.9819,1.9819,0,0,1,.4585.166,3.1808,3.1808,0,0,1,.3139.1914.7716.7716,0,0,1,.1866.169l.061.0644-.7275.76a1.1668,1.1668,0,0,0-.0948-.0982,1.2815,1.2815,0,0,0-.2607-.1626.8581.8581,0,0,0-.4009-.103.53.53,0,0,0-.354.1191.3537.3537,0,0,0-.1416.2769.2692.2692,0,0,0,.1191.2173,1.0471,1.0471,0,0,0,.3077.1543q.1883.063.415.1318a3.6209,3.6209,0,0,1,.457.1758,2.0954,2.0954,0,0,1,.4185.2539,1.0977,1.0977,0,0,1,.3076.3994,1.3411,1.3411,0,0,1,.1187.5791,1.3725,1.3725,0,0,1-.5054,1.0786,1.9789,1.9789,0,0,1-1.3418.4375,2.62,2.62,0,0,1-.6587-.082,2.1755,2.1755,0,0,1-.521-.1977,3.6044,3.6044,0,0,1-.3623-.232,1.4977,1.4977,0,0,1-.2319-.2l-.0708-.08.7246-.7568a.3118.3118,0,0,0,.0464.0518q.0336.0321.1318.1191a1.3854,1.3854,0,0,0,.208.1528,1.2826,1.2826,0,0,0,.2734.1177,1.0947,1.0947,0,0,0,.3282.0513.6286.6286,0,0,0,.43-.145A.4452.4452,0,0,0,35.5871,4.1875Z" transform="translate(0 -0.3371)" style="fill:#fff"/><path d="M38.9469,4.5483H41.32V5.604H37.695V.9883h3.56V2.0439H38.9469v.7242h1.78V3.76h-1.78Z" transform="translate(0 -0.3371)" style="fill:#fff"/><path d="M42.1115,5.604V.9883h2.1758a1.67,1.67,0,0,1,1.2055.4555,1.501,1.501,0,0,1,.4746,1.128,1.5849,1.5849,0,0,1-.082.5166,1.345,1.345,0,0,1-.1977.39,1.9318,1.9318,0,0,1-.232.2544.9528.9528,0,0,1-.1928.1431l-.087.0483.9561,1.68H44.8156l-.792-1.4517h-.66V5.604ZM44.5773,2.9a.438.438,0,0,0,.1382-.33.4306.4306,0,0,0-.1382-.3281.5.5,0,0,0-.3574-.13h-.8565v.92H44.22A.4969.4969,0,0,0,44.5773,2.9Z" transform="translate(0 -0.3371)" style="fill:#fff"/><path d="M47.9084,5.604,46.26.9883h1.3521l.9912,3.164L49.592.9883h1.3515L49.2956,5.604Z" transform="translate(0 -0.3371)" style="fill:#fff"/><path d="M53.6764,4.6157H52.16l-.3281.9883H50.48L52.2282.9883H53.612L55.36,5.604H54.008Zm-.3281-.9883L52.92,2.2759l-.4282,1.3515Z" transform="translate(0 -0.3371)" style="fill:#fff"/><path d="M55.0929.9883h3.8243V2.1118H57.63V5.604h-1.252V2.1118H55.0929Z" transform="translate(0 -0.3371)" style="fill:#fff"/><path d="M59.5734,5.604V.9883h1.252V5.604Z" transform="translate(0 -0.3371)" style="fill:#fff"/><path d="M63.2428,2.3545a1.2747,1.2747,0,0,0-.3764.9414,1.2866,1.2866,0,0,0,1.32,1.32,1.531,1.531,0,0,0,.6631-.1479A1.4672,1.4672,0,0,0,65.3,4.1685l.1381-.148.7242.7915c-.0171.0259-.0425.06-.0757.1016a2.2363,2.2363,0,0,1-.2315.2221,2.5237,2.5237,0,0,1-.393.2818,2.4648,2.4648,0,0,1-.5567.22,2.624,2.624,0,0,1-.7192.0981,2.534,2.534,0,0,1-1.8237-.7192,2.3027,2.3027,0,0,1-.7481-1.7207,2.3024,2.3024,0,0,1,.7481-1.72A2.66,2.66,0,0,1,64.8908.9526a2.2062,2.2062,0,0,1,.5522.232,3.3983,3.3983,0,0,1,.38.27,1.4423,1.4423,0,0,1,.2334.2314L66.13,1.78l-.7592.7915c-.0132-.0171-.03-.0391-.0518-.0659a1.4159,1.4159,0,0,0-.1479-.1416,1.9216,1.9216,0,0,0-.2417-.18,1.37,1.37,0,0,0-.33-.1416,1.3984,1.3984,0,0,0-.4136-.063A1.2824,1.2824,0,0,0,63.2428,2.3545Z" transform="translate(0 -0.3371)" style="fill:#fff"/><path d="M8.93,5.0448A4.355,4.355,0,1,1,4.5749.69,4.3551,4.3551,0,0,1,8.93,5.0448" transform="translate(0 -0.3371)" style="fill:#0f265c"/><path d="M4.5747.47A4.5751,4.5751,0,1,0,9.15,5.0445,4.5745,4.5745,0,0,0,4.5747.47m.1274,8.7444A4.16,4.16,0,0,1,.7221,6.75c.01-.0081.0336-.0219.0336-.0219.5054-.143.9954.1142,1.5512.5817A9.257,9.257,0,0,0,4.4936,9.0185a1.369,1.369,0,0,0,.2326.1034c-.0023.0112-.0181.0685-.0241.0922M6.18,8.9031a1.9066,1.9066,0,0,1-.977.0777c-.0761-.0223-.1487-.0462-.2235-.0735a5.8064,5.8064,0,0,1-1.52-.9041A9.2615,9.2615,0,0,0,1.6217,6.5539a.1651.1651,0,0,0,.0119-.0408,3.7844,3.7844,0,0,1,1.7412.5586c.2837.1739,1.4494.8609,1.6049.9373a6.4991,6.4991,0,0,0,.9767.3785,4.8649,4.8649,0,0,0,.5752.1319s.1565.0192.2038.024l.03.0709a4.4076,4.4076,0,0,1-.5854.2888M7.6031,7.96A1.7549,1.7549,0,0,1,6.04,8.164,9.0153,9.0153,0,0,1,3.9742,7.19c.0069-.0084.025-.0349.032-.0423a6.17,6.17,0,0,0,4.0922.0211c.01.0109.02.023.03.0335s.0357.0338.0463.0445a4.4249,4.4249,0,0,1-.5713.7135m-.2617-.8177a.5558.5558,0,0,0,.13-.2073L7.6685,6.32H7.3612c-.2433.3691-.8273.3133-1.311.0123a4.4679,4.4679,0,0,0-1.6638-.788.6568.6568,0,0,0-.1486.0068l-.0009,0a4.2974,4.2974,0,0,0,.2382,1.1129,1.1351,1.1351,0,0,0,.0473.1091l-.07-.0141a.931.931,0,0,1-.0578-.0811,3.4469,3.4469,0,0,1-.4118-1.0109.5683.5683,0,0,0-.2059.3518,1.13,1.13,0,0,0-.0065.1219l.1555.3625.2017.4708c-.0717-.027-.1629-.0648-.2676-.1083-.7172-.2982-2.1721-.9019-3.2748-.3873A4.238,4.238,0,1,1,8.8114,5.0445a4.3271,4.3271,0,0,1-.1462,1.1043,1.8423,1.8423,0,0,1-1.3238.9935" transform="translate(0 -0.3371)" style="fill:#fff"/><path d="M6.8467,4.5488a2.8914,2.8914,0,0,1,.33-.9668,2.5908,2.5908,0,0,0-2.5609-.0427,2.5879,2.5879,0,0,0-.171.3862l-.0013.0011-.0014.0045a2,2,0,0,0-.431.174A1.433,1.433,0,0,0,3.8852,5.436a1.4073,1.4073,0,0,0,.0879.1764l-.0374-.23a.6884.6884,0,0,1,.3973-.1087A3.0059,3.0059,0,0,1,5.91,5.9572l-.0146-.0389a2.4745,2.4745,0,0,1,.0479-1.8089,1.9976,1.9976,0,0,0-.6566-.225l.01-.0314a2.5177,2.5177,0,0,1,.8066.201,2.4048,2.4048,0,0,0,.0284,1.6216,2.533,2.533,0,0,1,.965.6575l.0344-.0154a2.902,2.902,0,0,1-.3179-1.3251,2.938,2.938,0,0,1,.0336-.4438" transform="translate(0 -0.3371)" style="fill:#fff"/><path d="M2.61,3.6477c.0273.2929.0767.794.0767.794h.0879s.0507-.5011.0786-.794c.0164-.1776.0868-.2555.2133-.2863.1038-.0259.4255-.0723.4255-.0723V3.2068a3.5094,3.5094,0,0,1-.4435-.0724.2682.2682,0,0,1-.2057-.2052c-.0323-.1129-.0708-.4647-.0708-.4647H2.6891s-.0388.3518-.0712.4647a.2645.2645,0,0,1-.2051.2052,3.5111,3.5111,0,0,1-.4437.0724v.0823s.321.0464.4256.0723c.1259.0308.1968.1087.2148.2863" transform="translate(0 -0.3371)" style="fill:#fff"/><path d="M6.0536,2.8106l-.0722.3167a1.3319,1.3319,0,0,0-.7707-.31l-.0118-.0467a.9556.9556,0,0,1,.8547.04" transform="translate(0 -0.3371)" style="fill:#fff"/><path d="M26.1162,6.6256a1.5419,1.5419,0,0,1,1.1143.4136,1.48,1.48,0,0,1-.0022,2.0874,1.54,1.54,0,0,1-1.1121.4132h-.7434v1.2474h-1.13V6.6256Zm-.7434,1.0125V8.53h.6817a.4716.4716,0,0,0,.337-.134.42.42,0,0,0,0-.6238.47.47,0,0,0-.337-.134Z" transform="translate(0 -0.3371)" style="fill:#4960a6"/><path d="M30.511,9.656a.8276.8276,0,0,0,.2277-.5925V6.6256h1.129V9.0635a1.7654,1.7654,0,0,1-.5394,1.3137,2.0142,2.0142,0,0,1-2.7225,0,1.7654,1.7654,0,0,1-.5394-1.3137V6.6256h1.1279V9.0635a.83.83,0,0,0,.2286.5925.7364.7364,0,0,0,1.0881,0" transform="translate(0 -0.3371)" style="fill:#4960a6"/><path d="M33.74,9.5571a1.1526,1.1526,0,0,0,.85.339,1.3748,1.3748,0,0,0,.5982-.1331,1.3312,1.3312,0,0,0,.4065-.27L35.72,9.36l.6519.7143a1.0149,1.0149,0,0,1-.0683.0914,2.0171,2.0171,0,0,1-.2081.2,2.3034,2.3034,0,0,1-.3551.2543,2.2279,2.2279,0,0,1-.5019.1988,2.38,2.38,0,0,1-.6488.0883,2.2831,2.2831,0,0,1-1.6442-.6495,2.1228,2.1228,0,0,1,0-3.1025,2.4,2.4,0,0,1,2.28-.562,1.9991,1.9991,0,0,1,.4971.2092,3.0771,3.0771,0,0,1,.3422.2441,1.3629,1.3629,0,0,1,.2117.2091l.0661.0849-.6852.7139a.6869.6869,0,0,0-.0462-.06,1.4089,1.4089,0,0,0-.1331-.1276,1.6221,1.6221,0,0,0-.2184-.1628,1.3788,1.3788,0,0,0-.67-.1846,1.2,1.2,0,0,0-.85,2.0379" transform="translate(0 -0.3371)" style="fill:#4960a6"/><path d="M38.6247,6.6256a1.5362,1.5362,0,0,1,1.1146.4136,1.3811,1.3811,0,0,1,.43,1.0427,1.3842,1.3842,0,0,1-.4305,1.0447,1.5424,1.5424,0,0,1-1.1137.4132h-.7426v1.2474H36.7528V6.6256Zm-.7426,1.0125V8.53h.6825a.4706.4706,0,0,0,.3368-.134.4172.4172,0,0,0,0-.6238.4685.4685,0,0,0-.3368-.134Z" transform="translate(0 -0.3371)" style="fill:#4960a6"/><line x1="11.0227" x2="11.0227" y2="9.6211" style="fill:none;stroke:#0f265c;stroke-miterlimit:10;stroke-width:0.179807048687177px"/><path d="M41.3464,6.9141h.1552V8.3584h-.1552Z" transform="translate(0 -0.3371)" style="fill:#fff"/><path d="M43.1086,6.9141V8.3584h-.1338l-.8863-1.165v1.165h-.1552V6.9141h.1342l.8872,1.1665V6.9141Z" transform="translate(0 -0.3371)" style="fill:#fff"/><path d="M43.3854,6.9141h.1651l.4746,1.228.4741-1.228h.165l-.5669,1.4443h-.144Z" transform="translate(0 -0.3371)" style="fill:#fff"/><path d="M45.9528,8.2144v.144H44.9416V6.9141h.99v.145h-.835v.4746h.67v.144h-.67v.5367Z" transform="translate(0 -0.3371)" style="fill:#fff"/><path d="M46.9079,7.84a.2909.2909,0,0,0-.1123-.0815,1.3934,1.3934,0,0,0-.1529-.0532c-.0556-.0156-.1113-.0332-.167-.0523a.8224.8224,0,0,1-.1528-.07.3222.3222,0,0,1-.1123-.1167.3769.3769,0,0,1,.085-.458.4845.4845,0,0,1,.3359-.1143.576.576,0,0,1,.15.02A.5473.5473,0,0,1,46.9,6.96a.8323.8323,0,0,1,.0844.0537.2989.2989,0,0,1,.0538.0454l.017.0205-.104.1035-.0117-.0156a.38.38,0,0,0-.0386-.0342.4857.4857,0,0,0-.0639-.0444.38.38,0,0,0-.0894-.0352.4376.4376,0,0,0-.1157-.0156.3358.3358,0,0,0-.2261.0727.2244.2244,0,0,0-.084.1748.1928.1928,0,0,0,.0435.127.28.28,0,0,0,.1128.0815,1.3983,1.3983,0,0,0,.1528.0533c.0562.0156.1114.0332.167.0522a.844.844,0,0,1,.1524.07.3187.3187,0,0,1,.1128.1162.3582.3582,0,0,1,.0434.1812.3789.3789,0,0,1-.1289.2974.5187.5187,0,0,1-.3564.1142.67.67,0,0,1-.1763-.0224.6073.6073,0,0,1-.1372-.0533.8742.8742,0,0,1-.0947-.063.3119.3119,0,0,1-.0572-.0546l-.019-.023.0947-.105.0147.0186a.4025.4025,0,0,0,.0454.0434.4306.4306,0,0,0,.0761.0533.5326.5326,0,0,0,.11.0424.5182.5182,0,0,0,.1431.02.3629.3629,0,0,0,.2446-.0738.2439.2439,0,0,0,.0854-.1938A.1924.1924,0,0,0,46.9079,7.84Z" transform="translate(0 -0.3371)" style="fill:#fff"/><path d="M48.27,6.9141v.145h-.4541V8.3584h-.1538V7.0591h-.4541v-.145Z" transform="translate(0 -0.3371)" style="fill:#fff"/><path d="M48.5265,6.9141h.1553V8.3584h-.1553Z" transform="translate(0 -0.3371)" style="fill:#fff"/><path d="M49.2375,7.1108a.7431.7431,0,0,1,.7363-.186.6535.6535,0,0,1,.1665.0742,1.0228,1.0228,0,0,1,.1157.0874.4923.4923,0,0,1,.0723.0757l.0229.0313-.1035.0922-.018-.0263A.5609.5609,0,0,0,50.173,7.2a.6011.6011,0,0,0-.0962-.0752.6247.6247,0,0,0-.1362-.06.5821.5821,0,0,0-.1773-.0273.5652.5652,0,0,0-.4179.1723.6178.6178,0,0,0,0,.8521.5648.5648,0,0,0,.4179.1719.654.654,0,0,0,.1651-.0205.5476.5476,0,0,0,.1289-.0493.9807.9807,0,0,0,.0889-.0567A.26.26,0,0,0,50.2,8.0591l.017-.02V7.76h-.3305V7.6162h.4848v.4644c-.0058.0078-.0141.0185-.0258.0317s-.0367.0366-.0752.0708a.84.84,0,0,1-.1231.0918.7424.7424,0,0,1-.17.0718.743.743,0,0,1-.74-1.2359Z" transform="translate(0 -0.3371)" style="fill:#fff"/><path d="M50.9172,7.9565l-.1656.4019h-.165l.5981-1.4443h.1441l.5981,1.4443h-.164l-.1651-.4019Zm.34-.8256-.2793.6806h.5571Z" transform="translate(0 -0.3371)" style="fill:#fff"/><path d="M52.2355,7.1108a.743.743,0,0,1,.7363-.186.6535.6535,0,0,1,.1665.0742,1.0155,1.0155,0,0,1,.1158.0874.4859.4859,0,0,1,.0722.0757l.023.0313-.1035.0922-.0181-.0263A.5673.5673,0,0,0,53.1711,7.2a.6056.6056,0,0,0-.0962-.0752.6258.6258,0,0,0-.1363-.06.5815.5815,0,0,0-.1772-.0273.5654.5654,0,0,0-.418.1723.6178.6178,0,0,0,0,.8521.5651.5651,0,0,0,.418.1719.6094.6094,0,0,0,.1772-.0254.5615.5615,0,0,0,.14-.062.9765.9765,0,0,0,.0986-.0723.3151.3151,0,0,0,.06-.0625l.019-.0254.103.0938a.3834.3834,0,0,1-.0249.0317,1.0735,1.0735,0,0,1-.1938.1626.6809.6809,0,0,1-.1665.0718.7093.7093,0,0,1-.2129.0317.7434.7434,0,0,1-.5259-1.2676Z" transform="translate(0 -0.3371)" style="fill:#fff"/><path d="M53.6574,6.9141h.1553V8.3584h-.1553Z" transform="translate(0 -0.3371)" style="fill:#fff"/><path d="M55.42,8.1621a.7456.7456,0,1,1,.2168-.5259A.7155.7155,0,0,1,55.42,8.1621Zm-.9434-.1a.5942.5942,0,0,0,.836,0,.6191.6191,0,0,0,0-.8521.5932.5932,0,0,0-.836,0,.6178.6178,0,0,0,0,.8521Z" transform="translate(0 -0.3371)" style="fill:#fff"/><path d="M57.1505,6.9141V8.3584h-.1337l-.8863-1.165v1.165h-.1552V6.9141H56.11l.8872,1.1665V6.9141Z" transform="translate(0 -0.3371)" style="fill:#fff"/><path d="M58.9855,8.2144v.144H57.9743V6.9141h.99v.145H58.13v.4746h.67v.144h-.67v.5367Z" transform="translate(0 -0.3371)" style="fill:#fff"/><path d="M60.4679,6.9141V8.3584h-.1338l-.8862-1.165v1.165h-.1553V6.9141h.1343l.8872,1.1665V6.9141Z" transform="translate(0 -0.3371)" style="fill:#fff"/><path d="M42.234,8.8921v.145H41.78v1.2993h-.1539V9.0371h-.4541v-.145Z" transform="translate(0 -0.3371)" style="fill:#fff"/><path d="M43.5011,10.1924v.144H42.49V8.8921h.99v.145h-.8349v.4746h.67v.1441h-.67v.5366Z" transform="translate(0 -0.3371)" style="fill:#fff"/><path d="M43.8083,10.3364V8.8921h.1552v1.3h.7422v.144Z" transform="translate(0 -0.3371)" style="fill:#fff"/><path d="M45.9728,10.1924v.144H44.9616V8.8921h.99v.145h-.8349v.4746h.67v.1441h-.67v.5366Z" transform="translate(0 -0.3371)" style="fill:#fff"/><path d="M46.404,9.0889a.7437.7437,0,0,1,.7363-.1861.6365.6365,0,0,1,.1665.0743,1.0228,1.0228,0,0,1,.1157.0874.488.488,0,0,1,.0723.0756l.0229.0313-.1035.0923-.018-.0264a.5712.5712,0,0,0-.0567-.0591.6011.6011,0,0,0-.0962-.0752.62.62,0,0,0-.1362-.0595.5787.5787,0,0,0-.1773-.0274.5641.5641,0,0,0-.4179.1724.6177.6177,0,0,0,0,.852.5637.5637,0,0,0,.4179.1719.61.61,0,0,0,.1773-.0254.5623.5623,0,0,0,.14-.062.9745.9745,0,0,0,.0987-.0723.2991.2991,0,0,0,.06-.063l.02-.0249.1025.0938c-.0054.0078-.0137.0185-.0249.0317a.9064.9064,0,0,1-.0733.0708.8905.8905,0,0,1-.1206.0918.6792.6792,0,0,1-.1665.0718.7084.7084,0,0,1-.2129.0317.7433.7433,0,0,1-.5258-1.2675Z" transform="translate(0 -0.3371)" style="fill:#fff"/><path d="M48.96,10.14a.7455.7455,0,1,1,.2168-.5258A.7153.7153,0,0,1,48.96,10.14Zm-.9433-.1a.594.594,0,0,0,.8359,0,.619.619,0,0,0,0-.852.5928.5928,0,0,0-.8359,0,.6177.6177,0,0,0,0,.852Z" transform="translate(0 -0.3371)" style="fill:#fff"/><path d="M50.2482,9.9233l-.5771-.7622v1.1753h-.1553V8.8921H49.65l.5981.7847.5982-.7847H50.98v1.4443h-.1538V9.1611Z" transform="translate(0 -0.3371)" style="fill:#fff"/><path d="M52.2853,10.0835a.43.43,0,0,0,.1265-.314V8.8921h.1553V9.77a.5877.5877,0,0,1-1.1753,0V8.8921h.1543V9.77a.4288.4288,0,0,0,.1269.314.428.428,0,0,0,.6123,0Z" transform="translate(0 -0.3371)" style="fill:#fff"/><path d="M54.1535,8.8921v1.4443H54.02l-.8862-1.165v1.165h-.1553V8.8921h.1343L54,10.0586V8.8921Z" transform="translate(0 -0.3371)" style="fill:#fff"/><path d="M54.5856,8.8921h.1553v1.4443h-.1553Z" transform="translate(0 -0.3371)" style="fill:#fff"/><path d="M55.2961,9.0889a.7437.7437,0,0,1,.7363-.1861.638.638,0,0,1,.1665.0743,1.0228,1.0228,0,0,1,.1157.0874.488.488,0,0,1,.0723.0756l.0229.0313-.1035.0923-.0181-.0264a.5665.5665,0,0,0-.0566-.0591.6011.6011,0,0,0-.0962-.0752.6224.6224,0,0,0-.1362-.0595.5791.5791,0,0,0-.1773-.0274.5647.5647,0,0,0-.4179.1724.6177.6177,0,0,0,0,.852.5643.5643,0,0,0,.4179.1719.61.61,0,0,0,.1773-.0254.5623.5623,0,0,0,.14-.062.9745.9745,0,0,0,.0987-.0723.2991.2991,0,0,0,.06-.063l.0191-.0249.103.0938c-.0054.0078-.0137.0185-.0249.0317a.9064.9064,0,0,1-.0733.0708.8905.8905,0,0,1-.1206.0918.6792.6792,0,0,1-.1665.0718.7084.7084,0,0,1-.2129.0317.7432.7432,0,0,1-.5258-1.2675Z" transform="translate(0 -0.3371)" style="fill:#fff"/><path d="M56.8835,9.9346l-.1656.4018h-.165l.5981-1.4443h.1441l.5981,1.4443h-.164l-.1651-.4018Zm.34-.8257L56.945,9.79h.5566Z" transform="translate(0 -0.3371)" style="fill:#fff"/><path d="M58.2018,9.0889a.7437.7437,0,0,1,.7363-.1861.6388.6388,0,0,1,.1666.0743,1.0228,1.0228,0,0,1,.1157.0874.4817.4817,0,0,1,.0722.0756l.023.0313-.1035.0923-.0181-.0264a.5665.5665,0,0,0-.0566-.0591.6056.6056,0,0,0-.0962-.0752.6212.6212,0,0,0-.1363-.0595.5785.5785,0,0,0-.1772-.0274.5643.5643,0,0,0-.418.1724.6177.6177,0,0,0,0,.852.5639.5639,0,0,0,.418.1719.6094.6094,0,0,0,.1772-.0254.5615.5615,0,0,0,.14-.062.9614.9614,0,0,0,.0986-.0723.3.3,0,0,0,.06-.063l.02-.0249.1025.0938a.3834.3834,0,0,1-.0249.0317.882.882,0,0,1-.0732.0708.8968.8968,0,0,1-.1206.0918.6809.6809,0,0,1-.1665.0718.7093.7093,0,0,1-.2129.0317.7433.7433,0,0,1-.5259-1.2675Z" transform="translate(0 -0.3371)" style="fill:#fff"/><path d="M59.6237,8.8921h.1553v1.4443h-.1553Z" transform="translate(0 -0.3371)" style="fill:#fff"/><path d="M61.3859,10.14a.7455.7455,0,1,1,.2168-.5258A.7153.7153,0,0,1,61.3859,10.14Zm-.9434-.1a.5942.5942,0,0,0,.836,0,.619.619,0,0,0,0-.852.5929.5929,0,0,0-.836,0,.6177.6177,0,0,0,0,.852Z" transform="translate(0 -0.3371)" style="fill:#fff"/><path d="M63.1169,8.8921v1.4443h-.1338l-.8863-1.165v1.165h-.1552V8.8921h.1342l.8872,1.1665V8.8921Z" transform="translate(0 -0.3371)" style="fill:#fff"/><path d="M64.56,10.1924v.144H63.549V8.8921h.99v.145h-.8349v.4746h.67v.1441h-.67v.5366Z" transform="translate(0 -0.3371)" style="fill:#fff"/><path d="M65.5153,9.8179a.2911.2911,0,0,0-.1123-.0816,1.3988,1.3988,0,0,0-.1528-.0532c-.0557-.0156-.1114-.0332-.167-.0522a.8271.8271,0,0,1-.1529-.07.3183.3183,0,0,1-.1123-.1167.3773.3773,0,0,1,.085-.458.4852.4852,0,0,1,.3359-.1142.5748.5748,0,0,1,.15.02.5453.5453,0,0,1,.1182.0464.8523.8523,0,0,1,.0845.0537.3017.3017,0,0,1,.0537.0454l.0171.0205-.104.1035-.0118-.0156a.4.4,0,0,0-.0385-.0342.48.48,0,0,0-.064-.0444.3793.3793,0,0,0-.0893-.0352.4378.4378,0,0,0-.1158-.0156.3348.3348,0,0,0-.226.0728.2238.2238,0,0,0-.084.1748.1923.1923,0,0,0,.0434.1269.2855.2855,0,0,0,.1128.0816,1.3934,1.3934,0,0,0,.1529.0532c.0561.0156.1113.0332.1669.0522a.8374.8374,0,0,1,.1524.07.3179.3179,0,0,1,.1128.1162.3578.3578,0,0,1,.0434.1811.3785.3785,0,0,1-.1289.2974.5182.5182,0,0,1-.3564.1142.67.67,0,0,1-.1763-.0224.6162.6162,0,0,1-.1372-.0532.8842.8842,0,0,1-.0947-.063.2947.2947,0,0,1-.0571-.0547l-.0191-.023.0947-.1049.0147.0185a.41.41,0,0,0,.0454.0435.4272.4272,0,0,0,.0762.0532.5343.5343,0,0,0,.11.0425.5186.5186,0,0,0,.1431.02.3634.3634,0,0,0,.2446-.0737.2442.2442,0,0,0,.0855-.1939A.192.192,0,0,0,65.5153,9.8179Z" transform="translate(0 -0.3371)" style="fill:#fff"/><path d="M16.6354,3.8945a1.7018,1.7018,0,1,1-1.7016,1.7017A1.7017,1.7017,0,0,1,16.6354,3.8945Z" transform="translate(0 -0.3371)" style="fill:#4960a6;fill-rule:evenodd"/><path d="M19.1871,2.9594l.043.0422A3.669,3.669,0,0,1,19.29,8.13,1.3166,1.3166,0,0,0,19,7.6919c-.0317-.0315-.0649-.0615-.0993-.09a3.0265,3.0265,0,0,0-.07-4.0881l.0059-.0058.0009-.0008a1.5032,1.5032,0,0,0,.3493-.5482ZM16.9179,9.2551q-.14.0107-.2825.0107A3.6738,3.6738,0,0,1,13.4913,7.489a1.03,1.03,0,0,0,.597-.2586,3.029,3.029,0,0,0,2.5471,1.3917c.04,0,.08-.0008.12-.0024v.002a1.3081,1.3081,0,0,0,.1625.6334ZM12.9666,5.5228a3.67,3.67,0,0,1,3.4025-3.5865,1.4924,1.4924,0,0,0-.09.5122c0,.0479.0024.0953.0067.1419A3.0262,3.0262,0,0,0,13.6132,5.45a1.0373,1.0373,0,0,0-.6466.0732Z" transform="translate(0 -0.3371)" style="fill:#4960a6;fill-rule:evenodd"/><path d="M13.4,5.8475a.6128.6128,0,1,1-.6129.6128A.6129.6129,0,0,1,13.4,5.8475Z" transform="translate(0 -0.3371)" style="fill:#4960a6;fill-rule:evenodd"/><path d="M17.7778,1.3735a1.0751,1.0751,0,1,1-1.0751,1.075A1.0751,1.0751,0,0,1,17.7778,1.3735Z" transform="translate(0 -0.3371)" style="fill:#4960a6;fill-rule:evenodd"/><path d="M18.07,7.7356a.8861.8861,0,1,1-.886.8861A.886.886,0,0,1,18.07,7.7356Z" transform="translate(0 -0.3371)" style="fill:#4960a6;fill-rule:evenodd"/></g></g></svg>