<svg xmlns="http://www.w3.org/2000/svg" viewBox="0 0 58.7312 28.7208"><g id="Capa_2" data-name="Capa 2"><g id="Capa_1-2" data-name="Capa 1"><path d="M37.4379,3.7313h0a1.6886,1.6886,0,0,1,.4078.1437.6209.6209,0,0,0,.3279.1048h.0024a.3066.3066,0,0,0,.24-.1025.2441.2441,0,0,0,.0556-.1587.298.298,0,0,0-.0394-.148.1816.1816,0,0,0-.111-.0949V3.4749a.0358.0358,0,0,1-.0037-.0155c0-.0186.0132-.0635.0965-.1181a1.6437,1.6437,0,0,1,.5587-.2894,3.5977,3.5977,0,0,1,.48-.0306,1.47,1.47,0,0,1,.3409.0286.222.222,0,0,0,.0645.009.52.52,0,0,0,.31-.1478,1.0937,1.0937,0,0,0,.2-.2275.1391.1391,0,0,0,.0212-.073.1624.1624,0,0,0-.0912-.1353.33.33,0,0,0-.1541-.0376.2388.2388,0,0,0-.2093.1033c-.0057.0258-.1362.0664-.2635.0621a.7979.7979,0,0,1-.22-.0252.1559.1559,0,0,0-.0635-.01,3.45,3.45,0,0,0-.4582.07,3.7159,3.7159,0,0,1-.4006.0679.3162.3162,0,0,0-.2293.1371.6957.6957,0,0,1-.1962.171c-.1979.1018-.4643.2524-.5591.3a.3771.3771,0,0,0-.1839.2933A.1285.1285,0,0,0,37.4379,3.7313ZM11.7846,2.4137c.094-.0006.238-.0339.3075-.0336h.0007a.2205.2205,0,0,0,.0184.0586.1988.1988,0,0,0,.1554.0845,1.7423,1.7423,0,0,0,.2724.0459l.004,0a.1144.1144,0,0,0,.092-.0509.1536.1536,0,0,0,.0223-.0847.4324.4324,0,0,0-.0752-.2221.3464.3464,0,0,0-.0886-.11.71.71,0,0,0-.1641-.0644,1.2037,1.2037,0,0,0-.4776-.0479.9333.9333,0,0,0-.1736.0147.2056.2056,0,0,0-.1527.18.1426.1426,0,0,0-.0027.0286A.2356.2356,0,0,0,11.7846,2.4137Zm3.9745,3.013a.2186.2186,0,0,0-.0732.0135h0a.1465.1465,0,0,0-.1143.1322.1725.1725,0,0,0,.18.1524.1809.1809,0,0,0,.0726-.0154.154.154,0,0,0,.0919-.1368.1413.1413,0,0,0-.0444-.1033A.1655.1655,0,0,0,15.7591,5.4267Zm2.233,8.5023h0a.1976.1976,0,0,0-.1371.2053.2624.2624,0,0,0,.0365.1367.1626.1626,0,0,0,.1353.0808h.0017a.2211.2211,0,0,0,.0612-.0106.1964.1964,0,0,0,.1313-.19.2142.2142,0,0,0-.1932-.2252.137.137,0,0,0-.0344.003h-.0013ZM.6615,7.398C.6242,7.3829.47,7.3155.469,7.3155L.4469,7.3092C.4061,7.3052.364,7.3034.3236,7.3034a.6787.6787,0,0,0-.1809.02.1826.1826,0,0,0-.1343.0988A.1074.1074,0,0,0,0,7.4636a.1274.1274,0,0,0,.0572.1A.556.556,0,0,0,.342,7.64a.7468.7468,0,0,0,.2114-.0426.7594.7594,0,0,0,.0884-.0353.3169.3169,0,0,0,.0351-.0211.0846.0846,0,0,0,.0375-.07A.08.08,0,0,0,.6615,7.398ZM17.2718,13.7a1.1427,1.1427,0,0,0-.2291.032.6525.6525,0,0,0-.2276.1577c-.0717.0667-.1321.13-.1325.13a.0747.0747,0,0,0-.0173.0724.0763.0763,0,0,0,.0552.0507,1.6,1.6,0,0,0,.2664.0339c.0591-.0023.1034.045.2009.107a.17.17,0,0,0,.0879.0228.451.451,0,0,0,.1661-.0461c.0233-.01.0442-.02.06-.0259l.007-.0025c.0069.0066.0162.0171.0253.0276a.1271.1271,0,0,0,.0924.0521.1.1,0,0,0,.09-.0711.3486.3486,0,0,0,.0158-.0988.2074.2074,0,0,0,.0016-.0286.4262.4262,0,0,0-.3326-.3959A.4133.4133,0,0,0,17.2718,13.7ZM1.544,6.9484v0a.1675.1675,0,0,0-.0613-.0128.129.129,0,0,0-.1155.076,1.102,1.102,0,0,0-.0431.1356c-.0148.0383-.0228.0443-.0335.0471a.9019.9019,0,0,0-.1728.0614.3851.3851,0,0,0-.0689.0432.1134.1134,0,0,0-.0471.0882.0911.0911,0,0,0,.0344.0722.1566.1566,0,0,0,.0542.0276.4041.4041,0,0,0,.113.0133.8492.8492,0,0,0,.2049-.0258c.0647-.0214.113-.0254.1588-.0883A.43.43,0,0,0,1.6,7.2633a1.0843,1.0843,0,0,0,.0112-.15.4365.4365,0,0,0-.0056-.08A.1074.1074,0,0,0,1.544,6.9484ZM23.0216,18.5922h0c-.1257-.0572-.3123-.0816-.3634-.174a.6287.6287,0,0,0-.2-.1877.4946.4946,0,0,0-.2365-.0855.1481.1481,0,0,0-.0585.0107.4021.4021,0,0,1-.1417.03.1915.1915,0,0,1-.1219-.038c-.1182-.0855-.3018-.19-.357-.2439a.6924.6924,0,0,0-.3868-.1371c-.0187.0013-.02-.0063-.069-.0106a.1233.1233,0,0,0-.0755.0286.196.196,0,0,0-.0627-.1245.2182.2182,0,0,0-.1479-.0552l-.0136,0a.1621.1621,0,0,0,.0646-.1156.5235.5235,0,0,0-.0328-.1761.2.2,0,0,0-.18-.1468l-.0039,0-.0023-.0028a2.0464,2.0464,0,0,0-.188-.3525.7776.7776,0,0,0-.55-.3507.336.336,0,0,0-.0682.007,1.1577,1.1577,0,0,1-.1812.0306c-.0523-.0043-.07-.0043-.1146-.0888-.0938-.2023-.2059-.2515-.24-.3224a.1654.1654,0,0,0-.1518-.0839.8389.8389,0,0,0-.1039.011l-.0321-.0386A.0736.0736,0,0,0,18.93,15.95a.9247.9247,0,0,0,.12-.4041.2075.2075,0,0,0-.007-.0512.1053.1053,0,0,0-.0182-.0366.0848.0848,0,0,0-.0623-.0273.0709.0709,0,0,0-.0371.01h0a.1685.1685,0,0,0-.0639.0712c-.0222.0386-.0439.085-.0648.12l-.0109.0169a.4109.4109,0,0,0-.1185-.12.3374.3374,0,0,0-.1956-.06.3816.3816,0,0,0-.1811.0443.1708.1708,0,0,0-.1033.1414v.0016l-.0136-.03a.2391.2391,0,0,0-.23-.1284.3254.3254,0,0,0-.2042.0692.9248.9248,0,0,1-.0478-.1.7519.7519,0,0,0-.044-.0857.1226.1226,0,0,0-.1-.0664.4517.4517,0,0,0-.3468.2757.403.403,0,0,0-.0179.0461.4648.4648,0,0,1,.0035-.0546.3912.3912,0,0,1,.0446-.1051.3718.3718,0,0,0,.0525-.1551.1255.1255,0,0,0-.0936-.1209.1756.1756,0,0,0-.0477-.0062.4091.4091,0,0,0-.2237.1025c-.03.0233-.0577.0466-.0806.0621a.2593.2593,0,0,1-.0278.02l-.0066.0041h0a.722.722,0,0,0-.34.299c-.0853.1377-.1257.2087-.1851.2427a.0868.0868,0,0,1-.0423.0105.0886.0886,0,0,1-.0266-.0034V15.93a.1481.1481,0,0,0-.0476-.0981.4673.4673,0,0,0-.2754-.1472.1058.1058,0,0,0-.0948.0492.9937.9937,0,0,1-.2664.1567.0538.0538,0,0,1-.0293.008c-.0392.01-.1213-.0818-.1333-.1221A.4573.4573,0,0,1,15.27,15.5c-.0015-.0266-.0024-.0538-.0024-.0812a1.736,1.736,0,0,1,.0689-.4761.1756.1756,0,0,0,.009-.0535.4634.4634,0,0,0-.1353-.2759.3907.3907,0,0,0-.2424-.15.1114.1114,0,0,0-.0246.0023.48.48,0,0,0-.1594.0744.2248.2248,0,0,1-.1.0426l-.007-.0012a.1476.1476,0,0,1-.0622-.0239.2873.2873,0,0,0-.12-.026.407.407,0,0,0,.0331-.0971.51.51,0,0,0,.0074-.0942c0-.0532-.0047-.1051-.0047-.1514a.2314.2314,0,0,1,.0715-.1961.3958.3958,0,0,0,.1193-.3013.474.474,0,0,0-.0317-.1771.1755.1755,0,0,0-.1244-.116.2585.2585,0,0,0-.0484-.004c-.1073.001-.2342.04-.324.039a.25.25,0,0,1-.0354-.0032c-.01,0-.0207-.0022-.0311-.0022a.26.26,0,0,0-.2443.2724.3529.3529,0,0,0,.0124.0891.182.182,0,0,1,.007.0461.13.13,0,0,1-.0258.0792l-.0107.0113a.2034.2034,0,0,0-.1128-.0366.3087.3087,0,0,0-.1987.0921c-.056.0506-.0889.0606-.1016.06-.0176.0051-.07-.0294-.1623-.1231a.8655.8655,0,0,1-.3281-.4906,3.0213,3.0213,0,0,1-.0239-.328.649.649,0,0,1,.0329-.2356.6424.6424,0,0,0,.0448-.2412.4355.4355,0,0,0-.02-.1432.1966.1966,0,0,0-.055-.0887l.0009-.003a.45.45,0,0,1,.1527-.1159.7165.7165,0,0,0,.3226-.2867.3408.3408,0,0,1,.1106-.0121c.042,0,.092.0017.1446.0017a.3733.3733,0,0,1,.2959.0893.251.251,0,0,0,.1308.0445.1532.1532,0,0,0,.1409-.0941.2768.2768,0,0,0,.0236-.1125c.002-.0026.01-.0608.114-.0615a.1958.1958,0,0,1,.0291.0015.4536.4536,0,0,0,.0556.0023c.1317,0,.2776-.0357.34-.0354l.0107.0007c.013.02.0364.0607.0623.0991a.2152.2152,0,0,0,.16.1131.121.121,0,0,0,.0809-.0291.1406.1406,0,0,0,.0229-.02,1.9181,1.9181,0,0,0,.0777.3345.41.41,0,0,0,.19.2635c.0211.006.0321.0313.0471.0947a.3526.3526,0,0,0,.0351.1.1566.1566,0,0,0,.1184.0765l.0182.0017a.16.16,0,0,0,.1165-.0566.5756.5756,0,0,0,.1008-.3483.3845.3845,0,0,0-.0172-.1274c-.0188-.0526-.051-.1714-.0856-.2848a1,1,0,0,0-.123-.2878.1728.1728,0,0,1-.0291-.1048.1566.1566,0,0,1,.0744-.1491,1.7042,1.7042,0,0,0,.32-.25c.1145-.1056.2247-.2138.2739-.2645a1.1885,1.1885,0,0,1,.1682-.1166c.0638-.0462.1423-.0945.1489-.2016a.17.17,0,0,0-.0285-.09.5624.5624,0,0,1-.0957-.2206.1043.1043,0,0,0,.0764.0315.2137.2137,0,0,0,.1477-.0817.2519.2519,0,0,0,.0717-.16.1314.1314,0,0,0-.0147-.0622.1443.1443,0,0,1-.0144-.0591.0652.0652,0,0,1,.0029-.02h.004a.2093.2093,0,0,0,.0327.003.1513.1513,0,0,0,.1177-.0524.1638.1638,0,0,0,.0384-.1083.2052.2052,0,0,0-.0219-.09.14.14,0,0,1,.0768-.0267.0688.0688,0,0,1,.0244.0041.3183.3183,0,0,0,.1064.0154.79.79,0,0,0,.2068-.0311.2865.2865,0,0,0,.1646-.0978.1285.1285,0,0,0,.02-.0675.27.27,0,0,0-.057-.1364A.1878.1878,0,0,1,17.3967,9.3a.1828.1828,0,0,1,.0719-.1221.3131.3131,0,0,1,.1335-.0722c.0391-.007.0929-.0072.1443-.012a.2992.2992,0,0,0,.0768-.0149.1188.1188,0,0,0,.0744-.0751h0a.2125.2125,0,0,1,.0283-.0347,1.129,1.129,0,0,0,.0162.1627.271.271,0,0,0,.0414.1111.15.15,0,0,0,.1229.0639.3941.3941,0,0,0,.2166-.0914c.03-.0211.0555-.0421.0748-.0577l.0241-.019.0071-.0038v-.001c.0367-.0128.3-.08.3565-.097.0112-.004.1085-.0179.1947-.0412a.5672.5672,0,0,0,.1267-.0489.1546.1546,0,0,0,.0839-.1271.1338.1338,0,0,0-.0077-.0434,1.1269,1.1269,0,0,0-.14-.3066.1089.1089,0,0,0-.0859-.044.1447.1447,0,0,0-.1066.061c-.0221.0272-.0421.058-.0639.0891a.0617.0617,0,0,1-.0454.0323c-.0087-.0017-.0045,0-.0074-.0027a.5892.5892,0,0,1-.0084-.1048.3308.3308,0,0,0-.0127-.0792.1045.1045,0,0,0-.0966-.075.1282.1282,0,0,0-.0762.0266.6531.6531,0,0,0-.0966.0833L18.44,8.46a.331.331,0,0,1-.04-.0536L18.3955,8.4a.2375.2375,0,0,0,.0573-.1471.2624.2624,0,0,0-.0461-.1424.2757.2757,0,0,0-.2355-.1377.4953.4953,0,0,0-.243.0812.5648.5648,0,0,1-.1387.07l.0058-.006c.0831-.0873.21-.1366.3111-.2547.0047-.004.0077-.0076.0281-.0076a.3182.3182,0,0,1,.1166.0347.5688.5688,0,0,1,.0662.0375.0756.0756,0,0,0,.0752.0036l-.001.0271a.5119.5119,0,0,0,.0152.13.13.13,0,0,0,.12.1022.4539.4539,0,0,0,.1861-.0631.465.465,0,0,0,.0816-.0562.1423.1423,0,0,0,.05-.0763l.0149-.0029a.3523.3523,0,0,0,.1765-.07c.0778-.0667.1646-.0621.2567-.11a.4249.4249,0,0,0,.1038-.1243c.0274-.0392.0473-.0505.0538-.0479.008.0008.0135.0008.0164.0273a.1176.1176,0,0,1-.06.0895.5179.5179,0,0,0-.1638.2555.6576.6576,0,0,1-.0677.1677.1712.1712,0,0,0-.0564.1213.1353.1353,0,0,0,.0514.1049.1784.1784,0,0,0,.1129.0363c.0115,0,.0238-.002.0366-.003a.39.39,0,0,1,.0655-.0043c.0386,0,.079.0033.1232.0033a.4016.4016,0,0,0,.133-.0193.095.095,0,0,1,.0268-.005c.0255-.0016.0477.021.067.0546a.1015.1015,0,0,0,.0867.0514.1643.1643,0,0,0,.107-.05.2514.2514,0,0,0,.0217-.02l.0084-.0017a.3771.3771,0,0,1,.0643-.006c.0416-.0013.0644.012.0644.015a.12.12,0,0,0,.0966.06.106.106,0,0,0,.0949-.0686.2223.2223,0,0,0,.0162-.0875.2378.2378,0,0,0-.0242-.11c-.0458-.0886-.0993-.1691-.1377-.262a.22.22,0,0,0-.2033-.1575.3142.3142,0,0,0-.0956.0158.11.11,0,0,1-.0338.0053c-.015,0-.0183-.0023-.0366-.015-.0167-.0123-.04-.0379-.0753-.0632l-.0194-.0123c.0359-.0732.063-.1124.1-.2006a1.23,1.23,0,0,1,.0671-.1128.3447.3447,0,0,0,.06-.1664.1614.1614,0,0,0-.1337-.1526.5707.5707,0,0,1-.1681-.0636.1011.1011,0,0,1-.046-.0689.5456.5456,0,0,0-.157-.2132.9643.9643,0,0,0-.1-.0819.2168.2168,0,0,0-.1068-.0427.8145.8145,0,0,1-.1359-.0089.249.249,0,0,1-.0559-.0164l-.0041-.003a1.223,1.223,0,0,0-.2379-.3784c-.0317-.0378-.117-.1518-.1968-.2579-.04-.0533-.08-.1055-.1127-.1464a.6369.6369,0,0,0-.0789-.09.13.13,0,0,0-.0807-.03c-.1027.0107-.1506.0809-.2509.2309-.0879.14-.1564.1715-.1926.17a.1022.1022,0,0,1-.0468-.0121c-.0551-.027-.0825-.0366-.0986-.0479a.3922.3922,0,0,1-.086-.0969c-.0125-.0173-.0136-.0244-.0136-.0259a.1859.1859,0,0,1,.03-.0311.1554.1554,0,0,0,.0593-.1108.1193.1193,0,0,0-.0139-.0551.3226.3226,0,0,0-.2126-.13,2.1082,2.1082,0,0,0-.25-.0434.4117.4117,0,0,1-.1623-.0948.5564.5564,0,0,0-.2877-.1223c-.0327-.0023-.0655-.0037-.0987-.0037-.1934,0-.3973.0376-.44.0366a.1205.1205,0,0,0-.0995.0513.82.82,0,0,0-.07.311.4776.4776,0,0,0-.0056.0656.3753.3753,0,0,0,.0207.1248l.0048.0182a.8349.8349,0,0,0-.0952.0293.1681.1681,0,0,0-.0453.0247.0948.0948,0,0,0-.0356.0725.1106.1106,0,0,0,.0426.0815.3656.3656,0,0,0,.0668.0431.7035.7035,0,0,1,.1715.1721c.0365.0481.0662.092.0826.1163a.3009.3009,0,0,1-.0089.0478.2175.2175,0,0,1-.0613.1106.5382.5382,0,0,1-.1351.095l-.005-.0083a.2045.2045,0,0,0-.1755-.1052.1455.1455,0,0,0-.09.0287.12.12,0,0,0-.0479.0971.1766.1766,0,0,0,.013.0605.7448.7448,0,0,0,.0861.1386.1426.1426,0,0,1,.0342.0829.711.711,0,0,0,.0382.1788.7191.7191,0,0,1,.0329.166c0,.0268-.007.0371-.0079.0371a.0677.0677,0,0,1-.0534.0215c-.0284,0-.0672-.0117-.12-.0127a.2191.2191,0,0,0-.033.0027.1056.1056,0,0,1-.0244-.0439.1506.1506,0,0,0,.0425-.12,1.0629,1.0629,0,0,0-.039-.233.0732.0732,0,0,0-.06-.0528.0763.0763,0,0,0-.0739.0356s-.0113.02-.0287.0465a.32.32,0,0,0-.0308-.0725.1679.1679,0,0,1-.0274-.0861.2165.2165,0,0,0-.0582-.1589.21.21,0,0,0-.1532-.0589.3734.3734,0,0,0-.0906.0128.1566.1566,0,0,1-.0441.005,3.6191,3.6191,0,0,1-.4391-.1063,1.3064,1.3064,0,0,1-.5095-.191.4241.4241,0,0,0-.2207-.0713.531.531,0,0,0-.1737.0412c-.008-.0223-.0181-.0672-.0334-.1128a.2088.2088,0,0,0-.1364-.1487c-.0782-.019-.1354-.0136-.14-.02-.0027-.0023-.0009.0023-.0086-.01a.3748.3748,0,0,1-.0212-.0925.5026.5026,0,0,1-.005-.0669.186.186,0,0,1,.0587-.1449,2.1539,2.1539,0,0,1,.2674-.22,2.0722,2.0722,0,0,0,.2861-.2653.2572.2572,0,0,1,.1831-.087,1.0087,1.0087,0,0,1,.1389-.01c.0544,0,.0969.0043.1353.0043a.1735.1735,0,0,0,.0869-.0187.111.111,0,0,0,.0517-.0991c0-.0115.0027-.0363.0062-.0659l.0262.0206c.0222.017.0426.031.0557.0413l-.0011,0c-.0514.0518-.0867.0819-.0909.1487a.1076.1076,0,0,0,.0856.1022.3662.3662,0,0,0,.0975.01.51.51,0,0,0,.21-.0663c.0532-.0272.097-.0544.1076-.06a.5032.5032,0,0,1,.0535-.0233.31.31,0,0,1,.1035-.0236.0461.0461,0,0,1,.02.0026l.0016,0c.0226.04.0365.0868.0595.1354l.002.0031a.2109.2109,0,0,0-.1218-.0417.2.2,0,0,0-.158.0838h0a.0976.0976,0,0,0-.0205.0578c.0093.0793.0573.0919.0914.1131a.324.324,0,0,0,.1287.0294.1426.1426,0,0,0,.1284-.0642.13.13,0,0,0,.0143-.0582.1676.1676,0,0,0-.0143-.0583.157.157,0,0,0,.1079.0373.3157.3157,0,0,0,.1662-.0569.2058.2058,0,0,0,.1043-.1664.1961.1961,0,0,0-.1043-.1618,1.4184,1.4184,0,0,0-.2407-.1176.3218.3218,0,0,1-.1484-.1017c-.0228-.0264-.0391-.0467-.0559-.063.05-.0206.15-.06.18-.0722a.8382.8382,0,0,0,.1321-.0439.2129.2129,0,0,0,.1427-.188.2414.2414,0,0,0-.0074-.0549.2922.2922,0,0,0-.1477-.1827c-.0217-.0119-.0431-.0212-.0582-.0281a.6874.6874,0,0,1,.0966-.0544.1942.1942,0,0,1,.0681-.0076.9612.9612,0,0,1,.1027.0063c.03.004.0512.0077.0517.0077a.4137.4137,0,0,0,.0443.0028.266.266,0,0,0,.0879-.0153.11.11,0,0,0,.05-.0328.1805.1805,0,0,0,.0194.0319.117.117,0,0,0,.0874.0353.1989.1989,0,0,0,.05-.0076.3021.3021,0,0,1,.0662-.011c.0317.0007.0374.0086.0906.0466l.0015.0094a.2415.2415,0,0,1-.0283.0967.2079.2079,0,0,1-.0264.0418.0546.0546,0,0,1-.0142.0133.8313.8313,0,0,0-.08.0454.1337.1337,0,0,0-.0672.1031.0994.0994,0,0,0,.059.0872.2841.2841,0,0,0,.0837.0211c.1583.0171.2715.0171.2742.0171a.0737.0737,0,0,0,.0561-.0266,1.1272,1.1272,0,0,0,.1515-.2359l.0009-.0036.0616.0384a.396.396,0,0,0,.0574.0268.4669.4669,0,0,0-.2951.2608.3263.3263,0,0,1-.0324.0576c-.0052.003,0,.0036-.0241.0057a.3973.3973,0,0,1-.0965-.0172.7054.7054,0,0,0-.19-.0306.2233.2233,0,0,0-.2166.1181.3533.3533,0,0,0-.0279.1539.5758.5758,0,0,0,.02.155.223.223,0,0,0,.0308.0674.1066.1066,0,0,0,.0862.05.1089.1089,0,0,0,.0422-.0085c.0529-.0276.1227-.0283.2212-.0662a.1769.1769,0,0,1,.0522-.0042c.1036-.0008.2841.0285.3867.0288a.27.27,0,0,0,.0507-.0035.08.08,0,0,1,.0244.0111c.0256.0154.0592.0425.0927.0682a.22.22,0,0,0,.1231.0593.1093.1093,0,0,0,.0354-.0068c.0249.0169.0856.0733.1411.12a.1233.1233,0,0,0,.075.0286.1073.1073,0,0,0,.0761-.034.3392.3392,0,0,0,.0277-.0351.16.16,0,0,1,.0288.0215.3366.3366,0,0,1,.0862.0951.0933.0933,0,0,0,.0548.05.1462.1462,0,0,0,.0465.006h.0145c.0764,0,.2593.0161.2593.0161a.0752.0752,0,0,0,.0543-.0168.0711.0711,0,0,0,.0252-.0509l.0024-.0117a.1193.1193,0,0,1,.0185-.0447c.0089-.01.0092-.0125.0249-.0131l.0181.0026a.3621.3621,0,0,1,.1166.0627c.02.0143.0387.028.058.0408a.145.145,0,0,0,.0783.0293.0909.0909,0,0,0,.077-.044.109.109,0,0,0,.013-.0592l-.0006-.0249c-.0071-.06-.003-.1183-.0136-.1834a.3219.3219,0,0,0-.1081-.1976A1.2024,1.2024,0,0,0,18.104,4.94c-.0314-.0179-.0591-.0333-.0793-.0462l-.0206-.0154,0,0a.2219.2219,0,0,1-.0241-.0517.5528.5528,0,0,1,.25.0961.5219.5219,0,0,0,.2711.1381.178.178,0,0,0,.1126-.04,1.9109,1.9109,0,0,0,.2355-.16c.0473-.0579.1432-.2056.1441-.2069a.0712.0712,0,0,0,.0058-.07.0739.0739,0,0,0-.0551-.0421c-.0014,0-.1033-.0165-.2116-.0428a1.3431,1.3431,0,0,1-.1521-.0444.419.419,0,0,1-.0508-.0238l-.0117-.0073h0A.6385.6385,0,0,0,18.342,4.27a.4382.4382,0,0,0-.1932-.0791.3044.3044,0,0,0-.0944.0232.1951.1951,0,0,1-.0654.0157c-.0182-.0047-.0152.0083-.037-.0389a1.8854,1.8854,0,0,1-.0532-.2383.7016.7016,0,0,0-.0256-.1041.1317.1317,0,0,0-.0805-.0888c-.0415-.012-.1947-.039-.3609-.0725-.0809-.0168-.1638-.0338-.2293-.05a.8187.8187,0,0,1-.121-.0366,2.8013,2.8013,0,0,0-.2664-.1164,1.9969,1.9969,0,0,1-.2768-.1321,1.0765,1.0765,0,0,0-.46-.2123c-.1124,0-.4841.0532-.6158.0526a.2673.2673,0,0,1-.0279-.0014.3355.3355,0,0,0-.0583-.0043,2.7819,2.7819,0,0,0-.4012.0543.1.1,0,0,0-.0879.1031c.0054.0739.0386.1264.0358.1557-.0067.016.0144.006-.0378.0265-.0257.0061-.0494.0124-.0682.0171.005-.027.0109-.0616.0188-.1012a.5962.5962,0,0,0,.0071-.0811.2774.2774,0,0,0-.07-.196A.2213.2213,0,0,0,14.71,3.12h.0086a.9128.9128,0,0,1,.0976.005c.1858.0188.4477.0469.6363.0469.0307,0,.0583-.0013.0851-.0024a.3746.3746,0,0,0,.2107-.0633.2289.2289,0,0,0,.0759-.1036.0811.0811,0,0,0,.0063-.0321.0957.0957,0,0,0-.0414-.0758.6621.6621,0,0,0-.2039-.08.9559.9559,0,0,0-.222-.0372.16.16,0,0,0-.0289.0023c-.0276.0039-.1716.007-.3164.007-.1467,0-.3012-.0031-.3654-.008-.0722-.0064-.1534-.009-.2313-.009a2.0868,2.0868,0,0,0-.2114.009H14.201c-.0571.0062-.1308-.0675-.2226-.1319-.0334-.0226-.1035-.083-.1765-.1379A.6324.6324,0,0,0,13.57,2.38a3.1033,3.1033,0,0,1-.32-.0875c-.0611-.0179-.14-.0372-.2022-.0559a.7046.7046,0,0,1-.0716-.0246h-.0006l-.0044-.0073a.0707.0707,0,0,0-.0595-.03.0715.0715,0,0,0-.0554.024.0906.0906,0,0,0-.0194.0359.3383.3383,0,0,0-.0134.0963.2128.2128,0,0,0,.1006.1962c.1009.0544.2691.1545.3958.2139a1.8034,1.8034,0,0,0,.242.0717.2858.2858,0,0,1,.1563.08.8819.8819,0,0,0,.3632.2289l.0167.0037.2923.0329c-.0727.0376-.1673.0734-.2491.1111a.6276.6276,0,0,0-.12.0686.1634.1634,0,0,0-.0691.1244.1357.1357,0,0,0,.02.0722A.2635.2635,0,0,1,14,3.6622a.2907.2907,0,0,0,.1158.2075.6394.6394,0,0,0,.2106.1342l-.0213-.0015a.2684.2684,0,0,0-.1578.07c-.0244.0177-.0435.0327-.0579.0437-.0041-.0077-.0086-.0187-.0133-.03a.741.741,0,0,0-.2378-.2737,1.8884,1.8884,0,0,0-.1983-.25.2639.2639,0,0,0-.0754-.0529c.0831-.0116.1665-.0221.2148-.0283a.1722.1722,0,0,0,.1366-.1783.15.15,0,0,0-.1281-.1567.253.253,0,0,1-.0832-.0364.2778.2778,0,0,0-.1406-.0481.1479.1479,0,0,0-.03.002.0969.0969,0,0,0,.0237-.0692.1215.1215,0,0,0-.0077-.0446h0a.2821.2821,0,0,0-.2653-.1735.2018.2018,0,0,0-.2.1291.1374.1374,0,0,0-.007.0408.1667.1667,0,0,0,.12.1417.467.467,0,0,0,.1771.0356l.0194,0c-.0341.0171-.0723.0374-.1083.0591a.839.839,0,0,0-.1123.0828.171.171,0,0,0-.0669.12.1.1,0,0,0,.0073.0382.2146.2146,0,0,0,.1908.1156.1583.1583,0,0,0-.041.079.4327.4327,0,0,0-.0036.045.9911.9911,0,0,0,.0912.309,1.0167,1.0167,0,0,1,.0629.3045.1366.1366,0,0,1-.0057.0509,1.2057,1.2057,0,0,0-.2076.0665.0427.0427,0,0,1-.0167.004h-.0017c-.0006,0-.0078-.0068-.0137-.0284a.31.31,0,0,1-.0107-.089c-.0007-.1108-.0241-.2082-.0234-.2512l.0007-.014.0005-.0013a.0861.0861,0,0,0,.012-.0443.0814.0814,0,0,0-.04-.0685.0905.0905,0,0,0-.0438-.0107c-.0565.0034-.104.025-.1725.0245a.2064.2064,0,0,1-.0552-.0065.3294.3294,0,0,0-.0732-.0078.2576.2576,0,0,0-.1223.0281.1319.1319,0,0,0-.0721.1091.1488.1488,0,0,0,.1135.1288.1124.1124,0,0,1,.0742.104c-.0026.0324-.0115.048-.0351.0587a.6857.6857,0,0,1-.19.0166c-.1852,0-.4282-.0223-.5372-.0223-.0849,0-.1794.0123-.2527.0123a.3072.3072,0,0,1-.0833-.0085c-.018-.0065-.0157-.0085-.016-.0085l-.001-.0031s-.001-.0008.0048-.0063a.2467.2467,0,0,1,.1521-.0557h.0567a.5759.5759,0,0,0,.5088-.2022.2333.2333,0,0,0,.0391-.1212.1963.1963,0,0,0-.155-.1777.6925.6925,0,0,0-.1984-.0293c-.0842-.0016-.14-.0274-.265-.1732A.0794.0794,0,0,1,11.7608,3.5a.1464.1464,0,0,1,.0358-.0758.2349.2349,0,0,0,.0632-.1305.1.1,0,0,0-.008-.0412.1161.1161,0,0,0-.0336-.0465h.0011A.1707.1707,0,0,0,11.86,3.2c.0927-.0379.107-.1105.1377-.1649a.6447.6447,0,0,1,.0337-.0668l.0007,0a1.7745,1.7745,0,0,1,.2056-.0231.2179.2179,0,0,1,.0759.01c.016.006.016.0093.017.0108a.3464.3464,0,0,0,.0441.0874.1177.1177,0,0,0,.09.0415c.0306-.001.0458-.0046.0745-.0046a.2737.2737,0,0,1,.0314.0013l.0184.001a.2944.2944,0,0,0,.2133-.1108.3714.3714,0,0,0,.09-.162.0946.0946,0,0,0,.002-.0221.2474.2474,0,0,0-.2721-.2118.4608.4608,0,0,0-.0548.004c-.0278.0031-.0738.0046-.13.0046-.0967,0-.2216-.0046-.337-.0046a1.96,1.96,0,0,0-.21.009.2733.2733,0,0,0-.16.0572h0a.2462.2462,0,0,0-.0529.1732c0,.0673.0107.1367.0107.1655a.1113.1113,0,0,0-.0152.06.1517.1517,0,0,0,.0346.0956.1119.1119,0,0,0,.0208.0224L11.705,3.172c-.0725.0007-.15.0186-.2143.0169h-.0028a.3859.3859,0,0,1,.0349-.0286.1853.1853,0,0,0,.0826-.12c.0073-.06.0542-.272.0542-.2728a.0661.0661,0,0,0-.0047-.0453.1994.1994,0,0,0-.1682-.1246.1687.1687,0,0,0-.0856.0247c-.08.05-.1039.066-.1193.063a.0992.0992,0,0,1-.0284-.0038v0a.4937.4937,0,0,1-.054-.0782.1962.1962,0,0,0-.1626-.0953.2582.2582,0,0,0-.053.0065.4241.4241,0,0,0-.2572.1963.2026.2026,0,0,1-.1027.0425h-.0013c-.0446-.0282-.2428-.1611-.2428-.1611a.0733.0733,0,0,0-.03-.0123c.0784-.0079.1745-.0423.23-.0412l.0179.002a.178.178,0,0,0,.122.0438.238.238,0,0,0,.1127-.0281.1279.1279,0,0,0,.0735-.11v-.02c-.0015-.0218.01-.09.0112-.1552a.2927.2927,0,0,0-.02-.1108.1362.1362,0,0,0-.1137-.0813l-.02-.0009c-.1611.0068-.301.1386-.4519.195a.1785.1785,0,0,0-.12.1637.1455.1455,0,0,0,.1011.1387c-.0431-.0032-.1073-.0083-.1715-.016a1.0867,1.0867,0,0,1-.15-.0256c-.0145-.0036-.0269-.0076-.0344-.01a.31.31,0,0,0-.3117-.1916.5418.5418,0,0,0-.06.003,2.0645,2.0645,0,0,0-.3772.0951c-.0615.0193-.1177.0383-.16.0516-.0215.0067-.0406.0123-.0536.0156l-.0153.0039h0a.0932.0932,0,0,0-.0636.0244.0825.0825,0,0,0-.0247.0626.1431.1431,0,0,0,.0078.0459.2758.2758,0,0,0-.0933.02.1828.1828,0,0,0-.1026.1228.1305.1305,0,0,0-.0044.0342.1085.1085,0,0,0,.0457.09.4182.4182,0,0,0,.2233.035l.0118.0008c.06,0,.1416,0,.2151-.005a.4647.4647,0,0,0,.1953-.0391.6108.6108,0,0,1,.21-.05h.0062a.2969.2969,0,0,0,.0249.0988L9.5941,2.94a.2987.2987,0,0,0-.0382-.0017.3328.3328,0,0,0-.1872.0549.165.165,0,0,1-.1.0356.2623.2623,0,0,1-.0457-.0049A.7677.7677,0,0,0,9.08,3.0113c-.0943,0-.1528.0158-.2387.0158-.0212,0-.0448-.0015-.0722-.0035-.0688-.006-.1267-.0123-.179-.0128a.2655.2655,0,0,0-.1362.03.1791.1791,0,0,0-.0837.1218,1.3,1.3,0,0,1-.0592.1906.3158.3158,0,0,1-.0353.0635l-.0076.0071a.1909.1909,0,0,0-.097.0314.1317.1317,0,0,0-.06.1039.1271.1271,0,0,0,.0793.11.4289.4289,0,0,0,.1629.0334c.1143.0135.1026.0256.1244.05a.2226.2226,0,0,0,.06.0677.232.232,0,0,0,.1347.0344l.0394-.0015a2.7709,2.7709,0,0,0,.33-.0324.3051.3051,0,0,0,.237-.1622.2863.2863,0,0,1,.0174-.0379c.0643.1.2162.3164.2173.319l.0105.0113c.0023.0007.1.0966.1746.1518-.0085.0079-.0193.0144-.026.013a.0389.0389,0,0,1-.0263-.011.6169.6169,0,0,0-.2416-.0872.3536.3536,0,0,1-.156-.0558.392.392,0,0,0-.2093-.08,1.7435,1.7435,0,0,0-.2476-.0172,1.1027,1.1027,0,0,0-.1672.01l-.0214.0013a.7037.7037,0,0,1-.1447-.0239.7355.7355,0,0,0-.1434-.0286.2052.2052,0,0,0-.1.0369,1.3017,1.3017,0,0,0-.116.0868c-.0221-.0407-.05-.0888-.07-.1231a.11.11,0,0,0-.0909-.0525.1824.1824,0,0,0-.12.0672c-.0124.0116-.0244.0233-.0334.0306L7.78,3.8729a.7709.7709,0,0,0-.2833-.0839.3291.3291,0,0,0-.119.0231.59.59,0,0,0-.1514.09c-.0241.0151-.03.0223-.1045.0241q-.0248,0-.0611-.0026c-.1979-.0132-.25-.05-.3482-.0538a.2381.2381,0,0,0-.05.0057L6.58,3.8916a.0736.0736,0,0,0-.0588.0805c-.0008.0014.005.0236-.0525.0646-.0351.0239-.0653.0491-.09.0645a.1074.1074,0,0,1-.0276.0158l-.0061.003-.0124-.0144a.3176.3176,0,0,0-.187-.1434c-.0036,0-.0268-.017-.0659-.0353a.3624.3624,0,0,0-.16-.0353.5018.5018,0,0,0-.129.018.3122.3122,0,0,1-.0836.01.9878.9878,0,0,1-.235-.0376A1.136,1.136,0,0,0,5.2939,3.84a5.6749,5.6749,0,0,1-.65-.0636,1.4531,1.4531,0,0,0-.3322-.0311,1.5453,1.5453,0,0,0-.2176.0124,3.4234,3.4234,0,0,1-.3553.0159c-.0211-.0159-.0555-.0422-.0923-.0695-.03-.021-.0609-.0423-.0893-.0606a.1971.1971,0,0,0-.0958-.0361.35.35,0,0,0-.0924.021.2865.2865,0,0,1-.0822.0151c-.0233,0-.0291-.004-.0348-.01a.6288.6288,0,0,0-.2249-.1545.0721.0721,0,0,0-.0589.0021.0732.0732,0,0,0-.0391.045.5448.5448,0,0,1-.0344.0832.1884.1884,0,0,1-.0717.0859,1.35,1.35,0,0,1-.2858.071l-.0059,0a.0965.0965,0,0,0-.0533-.0128.8744.8744,0,0,0-.2532.0738c-.0879.0346-.1646.07-.1646.07l-.0209.0136s-.05.0489-.107.0968a.826.826,0,0,1-.0846.0645.3309.3309,0,0,1-.03.0177H1.8171a.7972.7972,0,0,0-.18-.0221.2831.2831,0,0,0-.0792.01.1.1,0,0,0-.0748.0924.0971.0971,0,0,0,.0091.04.5432.5432,0,0,0,.0418.1328.2625.2625,0,0,0,.2492.1113.2914.2914,0,0,1,.1725.0407.385.385,0,0,0,.1339.075.8934.8934,0,0,1,.09.016.2177.2177,0,0,1,.0817.0636.2072.2072,0,0,1,.0445.06l-.01-.0007a.5642.5642,0,0,1-.3068-.1129l-.0836-.0834A.0745.0745,0,0,0,1.8179,4.5l-.1408.0769a1.702,1.702,0,0,0-.4567.1379.0732.0732,0,0,0-.0357.0968.8645.8645,0,0,0,.2162.2773.9241.9241,0,0,0,.4737.1153v0a.5694.5694,0,0,0-.17.1069c-.046.0428-.091.0712-.1327.1045a.1969.1969,0,0,0-.0873.1534.23.23,0,0,0,.0207.0915A.6523.6523,0,0,0,1.61,5.817a.14.14,0,0,0-.0506-.0083H1.5423a.2708.2708,0,0,0-.0959.01c-.0284.01-.04.0186-.1078.0436a.09.09,0,0,0-.0612.0843.1253.1253,0,0,0,.0383.0833.4434.4434,0,0,0,.0908.0711.2334.2334,0,0,0,.11.0366.1552.1552,0,0,0,.1215-.079.2463.2463,0,0,0,.0454-.13.1836.1836,0,0,0-.0028-.0313c.0273.0313.0533.0609.0714.0852a.2109.2109,0,0,1,.023.033l.0056.0111a.1067.1067,0,0,0,.11.0873A.3662.3662,0,0,0,2.07,6.0476a.35.35,0,0,0,.1229-.1211.214.214,0,0,1-.006.0394.3518.3518,0,0,0-.0077.068.2236.2236,0,0,0,.1063.1943.2947.2947,0,0,0,.0993.0421.0743.0743,0,0,0,.08-.0388s.0166-.0322.036-.0615l.0115-.0168c.02.02.045.0444.0667.0674.0394.0406.0744.0785.0744.0785a.0738.0738,0,0,0,.1006.0065.43.43,0,0,1,.0518-.0366.1978.1978,0,0,1,.0764-.0313l.0018.0073c.0013.0034-.008.0263-.0382.0521a.7.7,0,0,1-.1072.0717c-.0346.0209-.1334.0677-.23.1133a2.4,2.4,0,0,0-.2363.1234,2.0375,2.0375,0,0,1-.1945.1136c-.04.0213-.0806.0408-.114.0553-.0159.0058-.03.0118-.0411.0148l-.0112.0031H1.909a.1241.1241,0,0,0-.1066.0686.2056.2056,0,0,0-.0266.1031.1708.1708,0,0,0,.0313.1025.1376.1376,0,0,0,.115.0567.1463.1463,0,0,0,.024-.0014,3,3,0,0,0,.5976-.2245l.0127-.0047h0l.01.0018a.2069.2069,0,0,0,.0538.0082.4914.4914,0,0,0,.2343-.0908c.1222-.0725.2207-.1408.2957-.1885a.8418.8418,0,0,1,.0918-.0549.1112.1112,0,0,1,.0361-.0138l.0053.0056a.3842.3842,0,0,0,.1847.1589.19.19,0,0,0,.057.0085c.1524-.0077.2367-.1411.2861-.169a.36.36,0,0,0,.1192-.2539.13.13,0,0,0-.015-.0642.0961.0961,0,0,0-.0834-.05.0874.0874,0,0,0-.0263.0036.3642.3642,0,0,1-.04.0037.2337.2337,0,0,0,.0768-.1493A.26.26,0,0,1,3.906,5.87c-.0072.0206-.0146.0446-.0242.0718a.27.27,0,0,0-.0186.0912.1294.1294,0,0,0,.0388.0968.1313.1313,0,0,0,.09.0328.3914.3914,0,0,0,.2349-.1113c.03-.0275.0336-.0243.0829-.0349a.4663.4663,0,0,0,.2035-.0924A1.0543,1.0543,0,0,0,4.6667,5.78c.032-.03.0212-.0225.04-.0254l.0042.002a.64.64,0,0,1,.1076.0645.3275.3275,0,0,0,.1662.065.1422.1422,0,0,0,.089-.03h0l.0141-.0013a.6543.6543,0,0,1,.1744.0469.7964.7964,0,0,0,.2274.0539,1.4974,1.4974,0,0,1,.33.1031c.07.0271.1374.0541.1953.0749a.5092.5092,0,0,0,.1457.0389.3577.3577,0,0,1,.1571.0708.2694.2694,0,0,1,.1194.1937.3315.3315,0,0,0,.0728.2179.199.199,0,0,0,.1488.0514l.0334,0a.3745.3745,0,0,1,.1377.043.2483.2483,0,0,1,.0585.0412l.01.0122c0,.03-.0108.12-.0108.2124a.39.39,0,0,0,.1309.3483c.0573.0336.1146.0789.1681.1177a.3194.3194,0,0,0,.1715.08.0968.0968,0,0,0,.0565-.015.15.15,0,0,0,.0595-.1375.5409.5409,0,0,0-.0124-.111.36.36,0,0,0,.0277.0333.1616.1616,0,0,0,.1067.0584.19.19,0,0,1,.024.0178.3147.3147,0,0,1,.0976.1823.0579.0579,0,0,1-.0034.02.2566.2566,0,0,0-.0151.09.28.28,0,0,0,.2525.2914c.0169-.0051.0854.0375.1418.0975.0294.0279.0581.0586.0832.0845a.231.231,0,0,0,.089.0649.1352.1352,0,0,1,.0487.0391.1223.1223,0,0,1,.0206.0311l.0042.0093h0a1.8693,1.8693,0,0,0,.0368.2143,1.8435,1.8435,0,0,1,.0331.2365c0,.1068-.0423.5779-.0555.7612l-.0012.0353a1.26,1.26,0,0,0,.2693.684,1.902,1.902,0,0,1,.1882.3012.969.969,0,0,0,.1728.26.9807.9807,0,0,1,.0989.1278.251.251,0,0,0,.1966.1227l.0252-.0018.0132-.0007c.03.0007.055.0113.0966.0589a1.179,1.179,0,0,1,.1364.2353c.0535.11.1087.2645.1625.3959a1.72,1.72,0,0,0,.0789.1741.2384.2384,0,0,0,.1049.1162.302.302,0,0,1,.0886.059.12.12,0,0,1,.0385.0561l-.0027.0038a.5213.5213,0,0,0-.13.2645.126.126,0,0,0,.0359.0892.1351.1351,0,0,0,.0956.0329.8347.8347,0,0,0,.1485-.0236c.005.003.01-.0075.0553.0569a2.08,2.08,0,0,0,.1449.184c.04.0476.0557.0805.0535.095V12.86l-.002.0246a.1834.1834,0,0,0,.1013.158.4938.4938,0,0,0,.1113.0436l.0042.0054c.0193.0207.0519.0711.0929.1179a.2467.2467,0,0,0,.1723.1011.17.17,0,0,0,.1217-.0572.1814.1814,0,0,0,.0511-.1246.3826.3826,0,0,0-.1375-.2446c-.0647-.0652-.1389-.1221-.1663-.15-.0146-.0081-.0231-.06-.0358-.1484a.51.51,0,0,0-.162-.3025.6779.6779,0,0,1-.1506-.2055c.11.1319.2387.2623.3126.3415a2.7357,2.7357,0,0,1,.2213.3383c.0411.0669.079.13.1146.18a.52.52,0,0,0,.0525.0637.1176.1176,0,0,0,.0759.0411.7219.7219,0,0,1,.1227.1209c.0424.0489.0774.0966.0889.1125.0055.0106.0194.0395.0341.0758a.4421.4421,0,0,1,.0349.1268l-.0008.0068a.1619.1619,0,0,0-.0194.0807.5877.5877,0,0,0,.1962.3982c.1053.0712.4918.2851.5486.3194.0115.0093.0595.08.1116.1444a.3411.3411,0,0,0,.2481.1494.45.45,0,0,1,.2517.0409c.0118.0135.0434.0592.0825.1021a.2434.2434,0,0,0,.1662.0932.1462.1462,0,0,0,.1193-.0665.9183.9183,0,0,1,.0862-.1158c.0168-.013.0226-.0191.0779-.0206a.1289.1289,0,0,1,.0946.0466c.0306.0316.0622.08.1007.1274a2.0557,2.0557,0,0,0,.17.18.4145.4145,0,0,0,.2387.1307l.022-.0016h.0056a.2329.2329,0,0,1,.0905.0376.3456.3456,0,0,0,.1533.0572.13.13,0,0,0,.0762-.0243l.0084-.0017a.3874.3874,0,0,1,.1486.0722c.055.03.2079.1323.2029.2665v.0165l-.0005.0341a.3608.3608,0,0,0,.2323.333,1.2272,1.2272,0,0,1,.2464.2344.4149.4149,0,0,0,.1726.1082c.0273.0111.0527.0206.0694.0287l.02.01.004.0033c.0087.009.0231.0345.0452.0629a.1612.1612,0,0,0,.1228.0621.24.24,0,0,0,.1248-.0434.3046.3046,0,0,0,.1324-.23h.003a.1223.1223,0,0,1,.0806.02.4744.4744,0,0,1,.0695.1439c.0121.0326.0238.0659.0351.0946a.2262.2262,0,0,0,.051.08l.0019.0007a.4491.4491,0,0,1,.0367.0933.7.7,0,0,1,.0254.1815.4057.4057,0,0,1-.0147.1158,1.7345,1.7345,0,0,0-.0511.2628c-.0044.0256-.0084.0463-.0114.06a.1465.1465,0,0,0-.0689.0569c-.0294.0393-.0541.0883-.0809.1311a.2541.2541,0,0,1-.0635.0817,1.0128,1.0128,0,0,0-.1952.18.4545.4545,0,0,0-.134.2421l.001.0234a1.7259,1.7259,0,0,0,.0665.1962.7361.7361,0,0,1,.048.2.0975.0975,0,0,1-.0015.0225.6175.6175,0,0,1-.0876.1466.4588.4588,0,0,0-.0886.2485.31.31,0,0,0,.008.071.4652.4652,0,0,0,.2149.2506c.0833.056.1345.1039.1333.14a1.4423,1.4423,0,0,0,.127.3723,2.04,2.04,0,0,1,.1255.3332.8832.8832,0,0,0,.1544.2961.5183.5183,0,0,1,.1107.2757.4419.4419,0,0,0,.2059.34.8328.8328,0,0,0,.2557.1314.501.501,0,0,1,.1053.0792.9686.9686,0,0,0,.1727.1321.5735.5735,0,0,1,.22.251.667.667,0,0,1,.0483.2768c0,.0322-.0015.0562-.0015.0735.001.04-.0411.5632-.0835.8577a1.4861,1.4861,0,0,0-.0114.176c.0007.1367.0191.2522.0182.3254.0009.05-.0092.0718-.0132.0735-.055.0615-.1553.12-.1631.2462a.1841.1841,0,0,0,.0461.1194l.0051.007a.2729.2729,0,0,1-.0457.0479.3617.3617,0,0,0-.04.0376.1121.1121,0,0,0-.0341.0779.93.93,0,0,0,.0388.159.799.799,0,0,1,.0333.189.1367.1367,0,0,1-.0086.0539c-.0606.1264-.1026.2951-.1413.3862a.76.76,0,0,0-.1219.3261.3559.3559,0,0,0,.0055.0665l.0027.0223c-.004.022.0043.0087-.03.0386a.21.21,0,0,0-.0859.1757.2073.2073,0,0,0,.0764.169c.0261.0276.0216.0086.0261.05a.3405.3405,0,0,1-.0027.0363.7786.7786,0,0,1-.0557.1863.4724.4724,0,0,0-.0441.192,1.0024,1.0024,0,0,0,.0376.2325,1.3779,1.3779,0,0,1,.0324.1345.469.469,0,0,1-.04.1131,1.2688,1.2688,0,0,1-.1131.1946c-.0862.1211-.1647.2006-.1706.3211a.2912.2912,0,0,0,.0032.0339.4316.4316,0,0,0,.0638.1451c.0112.02.0221.0382.0279.0509l.0054.0119c-.0082.016-.0349.0633-.061.1115a.5056.5056,0,0,0-.0662.2163.236.236,0,0,0,.0013.0289.1705.1705,0,0,0,.1279.1467c.0179.006.0316.01.0379.0127a.5174.5174,0,0,1-.04.0452.1913.1913,0,0,0-.0632.1251.1266.1266,0,0,0,.0428.0955.767.767,0,0,0,.121.0862c.02.02.0264.0183.0294.0728a.4232.4232,0,0,1-.0035.0469.3512.3512,0,0,0-.0032.05c0,.2189.2208.2934.2149.3058.0191.0226.0522.0665.0918.1068a.2549.2549,0,0,0,.1459.0858.0839.0839,0,0,0,.0355.0542.0807.0807,0,0,0,.0431.013c.0153.004.08.0372.1445.0665a.5954.5954,0,0,0,.2255.0676,1.64,1.64,0,0,0,.4048-.0889c.0014-.002.1-.0226.1844-.0425a1.3122,1.3122,0,0,0,.1262-.0363.18.18,0,0,0,.1039-.07.0877.0877,0,0,0,.0114-.0423.09.09,0,0,0-.0487-.0782.6092.6092,0,0,0-.184-.0339.76.76,0,0,1-.18-.0326.7048.7048,0,0,1-.1981-.1631.68.68,0,0,1-.1352-.1889.4069.4069,0,0,1-.0133-.1115.2259.2259,0,0,1,.0529-.175c.11-.0765.3462-.3081.4-.356a.4477.4477,0,0,0,.0917-.1547.5546.5546,0,0,0,.0415-.18.1163.1163,0,0,0-.0391-.0955.1789.1789,0,0,0-.0956-.03c-.0457-.004-.0958-.0026-.1342-.0053-.0147-.002-.0277-.0036-.0361-.0056V26.827c-.0012-.0076.0084-.05.1-.1251a.9772.9772,0,0,0,.1783-.2066.9076.9076,0,0,1,.09-.1281.7956.7956,0,0,0,.23-.2977.2175.2175,0,0,0,.0156-.0716.09.09,0,0,0-.03-.0709.0941.0941,0,0,0-.0655-.0245c-.0515.0036-.0839.02-.11.02a.069.069,0,0,1-.0129-.0177.4043.4043,0,0,1-.0394-.1234c.0224.0056.05.015.0792.0256a1.5819,1.5819,0,0,0,.19.06.302.302,0,0,0,.0615.0077.1317.1317,0,0,0,.0938-.0359.1209.1209,0,0,0,.0322-.0849,1.2657,1.2657,0,0,0-.0294-.1517l-.0013-.03a.2939.2939,0,0,1,.0163-.0975l.0041-.0086a.3911.3911,0,0,0,.147.0206,2.59,2.59,0,0,0,.468-.0549c.0552-.0216.0662-.05.096-.0852.0742-.1025.1721-.29.21-.3447a.3117.3117,0,0,0,.06-.168.1781.1781,0,0,0-.0781-.1487.1223.1223,0,0,1-.0225-.0233.6458.6458,0,0,0,.2.0409.4333.4333,0,0,0,.3241-.1763c.1776-.2.33-.329.3541-.5084a.5127.5127,0,0,1,.0834-.2552.1484.1484,0,0,0,.0811.0293.1276.1276,0,0,0,.0959-.0489.4134.4134,0,0,0,.0575-.1058.4927.4927,0,0,1,.111-.1823.6833.6833,0,0,0,.1386-.198.2984.2984,0,0,0,.0262-.1274c-.003-.1291-.0588-.2459-.0558-.3161a.0889.0889,0,0,1,.0361-.08,4.65,4.65,0,0,1,.4522-.2941c.0012-.0007.0181-.01.0569-.0286a1.4322,1.4322,0,0,1,.1793-.0656,1.6678,1.6678,0,0,1,.2347-.0366.2672.2672,0,0,0,.2149-.1141A4.45,4.45,0,0,1,22.39,21.77a.7823.7823,0,0,0,.164-.3787.1824.1824,0,0,0-.0167-.08l0-.0106a1.1214,1.1214,0,0,1,.05-.2349,1.1947,1.1947,0,0,0,.0555-.26l-.0008-.0221a1.3992,1.3992,0,0,1-.05-.2539.2814.2814,0,0,1,.0976-.218,2.9413,2.9413,0,0,0,.3047-.3452.8754.8754,0,0,0,.1643-.28c.0017-.02.0452-.129.0866-.2418a1.1611,1.1611,0,0,0,.0823-.35v-.0263A.6918.6918,0,0,0,23.0216,18.5922ZM16.0727,8.9078l.006-.007-.006.0079Zm-.13.2212c.036-.0449.0751-.09.1052-.1217a.29.29,0,0,1,.0311-.0288.2971.2971,0,0,0,.0438.0035c.0639,0,.1495-.014.2163-.014a.3332.3332,0,0,1,.047.0032c-.0321.0151-.0861.0373-.1446.0632-.0652.0313-.1043.0421-.1468.0591a.257.257,0,0,0-.12.0994.3356.3356,0,0,1-.1218.0779l-.0336.0168C15.8432,9.2548,15.8911,9.1928,15.943,9.129Zm-.2192-.4425a.3611.3611,0,0,1,.0315.0645l-.0029-.0022a.12.12,0,0,1-.0341-.0736Zm-.0429.6941a.1592.1592,0,0,0-.0221.0229.3.3,0,0,1-.13.0892.1066.1066,0,0,0,.0162-.0291l.0062-.0048A.8689.8689,0,0,1,15.6809,9.3806Zm-.37-.7885a.1005.1005,0,0,0,.0371-.0057l-.0244-.07.0262.0655.0009.003a.6033.6033,0,0,1,.1193-.0077c.0413,0,.0869.0024.125.0057-.0175.01-.0187.0231-.0247.027a.4026.4026,0,0,0-.0393.12.7774.7774,0,0,0-.0189.16.263.263,0,0,0,.0263.13l.002.0073a.1143.1143,0,0,1-.045.0639.2593.2593,0,0,1-.0448.03h-.0016a.447.447,0,0,1-.0268-.1608c0-.0182,0-.0341.002-.0523a.2582.2582,0,0,0,.0017-.0354.3139.3139,0,0,0-.1663-.2858A.3121.3121,0,0,0,15.3105,8.5921Zm-.1578-.0336h-.014a.2581.2581,0,0,0-.0344.0023c-.2.0246-.2838.2119-.32.2346a.2638.2638,0,0,0-.0624.1558,1.3075,1.3075,0,0,0-.0117.1778.7178.7178,0,0,0,.01.1367.3523.3523,0,0,1,.0037.056.304.304,0,0,1-.0177.1116c-.0145.03-.0157.0271-.0257.0285h-.0054s-.0047.0021-.017-.03a.4272.4272,0,0,1-.0154-.1281,1.1436,1.1436,0,0,1,.0122-.16.396.396,0,0,0,.0027-.0519c0-.078-.0136-.18-.0136-.2706a.4053.4053,0,0,1,.02-.1429c.0321-.0892.1734-.1421.2788-.1564l.017,0a.7983.7983,0,0,1,.1747.0324Zm-1.0807-.35.0008-.0007c.0092-.0092.0809-.0262.1894-.0746l-.03-.0665.0308.0665a1.4854,1.4854,0,0,0,.2363-.1537.476.476,0,0,1,.14-.0811.8313.8313,0,0,0,.349.25.2771.2771,0,0,1-.026.0558.2911.2911,0,0,1-.0288.04l-.003.003c-.0445-.001-.1762-.0359-.2923-.0365-.041-.0036-.0316-.0061-.041-.0134-.0044-.0048-.0082-.0143-.02-.03a.1.1,0,0,0-.0814-.0416.098.098,0,0,0-.0341.0055,1.3,1.3,0,0,0-.2806.1068.1534.1534,0,0,1-.0747.0193.0769.0769,0,0,1-.038-.0076A.1618.1618,0,0,1,14.072,8.2082Zm.9868-3.47-.02.0058a.1614.1614,0,0,1-.0341.0055c-.0174-.0015-.0106,0-.0218-.009a.161.161,0,0,0-.0155-.0158C14.9983,4.7277,15.0307,4.7324,15.0588,4.7379Zm-.5964-.7135c.0263,0,.0535-.0017.0836-.0047.0247-.0021.048-.003.072-.003a1.0365,1.0365,0,0,1,.1841.0173l.0242.004c-.0005.0112-.0025.0226-.0039.0353a.3317.3317,0,0,1-.0161.0619l-.0076.0143c-.0224.0105-.0662.02-.1143.0386a.2159.2159,0,0,0-.1322.1394l-.0027.0086a.4829.4829,0,0,0,.0047-.0579.2345.2345,0,0,0-.0791-.1864.3944.3944,0,0,0-.1083-.0761A.4362.4362,0,0,0,14.4624,4.0244Zm-1.0693-.5328-.0047-.0282.0053.0282ZM2.3187,5.1123a.12.12,0,0,1-.0847.0468l-.01-.0008-.05-.0039a.2856.2856,0,0,0,.0532-.0387.1327.1327,0,0,1,.1-.0418l.0168,0A.1321.1321,0,0,1,2.3187,5.1123ZM8.4135,7.89l-.0041-.0028h.0033L8.43,7.9Zm.2653.24a.1873.1873,0,0,1,.0231.0865A.8335.8335,0,0,1,8.6788,8.13Zm1.4364,3.503c.0005-.0133.002-.0276.0378-.0582l.013-.01a.4211.4211,0,0,1,.0311.0805c.0153.0486.0284.11.0491.1652l.0019.0028C10.1625,11.7336,10.1087,11.66,10.1152,11.633Zm.7889-8.3722-.01,0a1.2171,1.2171,0,0,0-.1541.0125c-.1233.0159-.3192.0536-.4.0536l-.0207-.0018-.016-.0037a.5464.5464,0,0,0-.1341-.09c-.147-.0778-.2169-.0765-.2894-.1186a.8245.8245,0,0,0,.1059-.07.3723.3723,0,0,1,.0527-.0323.0433.0433,0,0,1,.0173-.007.3608.3608,0,0,1,.0438.0855.2487.2487,0,0,0,.1038.1391.4544.4544,0,0,0,.19.0332.56.56,0,0,0,.1969-.03.7336.7336,0,0,1,.2009-.0222.9244.9244,0,0,1,.1762.0147c.03.006.0779.017.13.0266l-.002.0293A.2815.2815,0,0,0,11.1,3.334.2782.2782,0,0,0,10.9041,3.2608Zm9.6667,14.4926c-.0174.025-.015.0386-.1168.0654a.2545.2545,0,0,1-.06.0072l-.0218-.0011a.0815.0815,0,0,1,.03-.0139.7872.7872,0,0,0,.1726-.0669Zm.2472.3876h-.002l.0027-.0018ZM12.4489,3.2092c-.0367.001-.1161-.0183-.1984-.0186a.2637.2637,0,0,0-.1663.0483.1688.1688,0,0,0-.0613.1357.211.211,0,0,0,.1735.2171l.0272.0015a1.5307,1.5307,0,0,0,.2152-.0366.9693.9693,0,0,0,.05.147.2388.2388,0,0,0,.2.1648.2027.2027,0,0,0,.1018-.03.5088.5088,0,0,0,.1715-.1557l.0264-.0413a.0942.0942,0,0,0,.0527-.0572.1792.1792,0,0,0,.0073-.0554.4763.4763,0,0,0-.13-.3241.3142.3142,0,0,0-.1859-.0441.7065.7065,0,0,0-.2714.0478h0Zm18.8624,6.8854c-.0057.0026-.11-.0212-.1966-.0223a.2492.2492,0,0,0-.1414.0364.0987.0987,0,0,0-.0411.0807.2106.2106,0,0,0,.0841.1422.57.57,0,0,0,.1228.086.28.28,0,0,1,.0746.0652.2964.2964,0,0,0,.1183.0887h0a.2114.2114,0,0,0,.0635.0085.2761.2761,0,0,0,.1354-.0341.174.174,0,0,0,.0871-.1536.3009.3009,0,0,0-.0127-.0808A.2937.2937,0,0,0,31.3113,10.0946Zm18.2732,5.0538h-.007a.1127.1127,0,0,0-.0868.0465.4232.4232,0,0,0-.1015.2549.2038.2038,0,0,0,.0179.086l-.0015-.0018a.3322.3322,0,0,0-.2386-.1464.1994.1994,0,0,0-.08.0166.1442.1442,0,0,0-.0582.0552.4838.4838,0,0,0-.0752.2384.1734.1734,0,0,0,.0314.1068.14.14,0,0,0,.1189.0567c.0755,0,.192.015.28.0153a.3284.3284,0,0,0,.084-.0089.1393.1393,0,0,0,.0474-.0237.0931.0931,0,0,0,.0317-.0692.1145.1145,0,0,0-.02-.06c-.0174-.0253-.0465-.0765-.0842-.1309a.1924.1924,0,0,0,.1322.0445l.02-.0006a.2237.2237,0,0,0,.2323-.2176A.2678.2678,0,0,0,49.5845,15.1484Zm3.8111,10.4835a.4928.4928,0,0,0-.215.0989c-.0343.0222-.0672.0435-.0919.0575a.1833.1833,0,0,1-.0311.0157l-.0023.0013c-.0632-.0176-.2018-.0772-.2024-.0772a.073.073,0,0,0-.0856.02.22.22,0,0,0-.06.139.2277.2277,0,0,0,.106.1667c.04.0333.055.0529.0535.0752l-.0014.0183a.1931.1931,0,0,0-.0073.0529.1506.1506,0,0,0,.0664.1284.2114.2114,0,0,0,.1178.03.5507.5507,0,0,0,.2051-.0469.2544.2544,0,0,0,.0921-.1,1.14,1.14,0,0,0,.1627-.4571.1642.1642,0,0,0-.0055-.0456A.1055.1055,0,0,0,53.3956,25.6319ZM49.67,15.7841a.0785.0785,0,0,0-.0588-.0186.0749.0749,0,0,0-.0524.0329,1.8361,1.8361,0,0,1-.1188.1687.18.18,0,0,1-.0209.02c-.0125-.0057-.0441-.0263-.0894-.0473a.2034.2034,0,0,0-.09-.02.3669.3669,0,0,0-.229.1.293.293,0,0,0-.1131.1964.12.12,0,0,0,.0138.0582.1551.1551,0,0,0,.1291.0722c.0645.0084.1357.0051.1942.0128s.0866.0242.0946.0448a.7871.7871,0,0,0,.0655.1259.149.149,0,0,0,.1168.0651l.0074-.0008a.42.42,0,0,0,.1038-.0173.3886.3886,0,0,0,.2119-.1612.4415.4415,0,0,0,.09-.2452.2176.2176,0,0,0-.011-.0719A1.0846,1.0846,0,0,0,49.67,15.7841Zm4.1149,6.2823a.6769.6769,0,0,1-.1477-.2632h0l.0008-.005.0008-.0176a.1781.1781,0,0,0-.0652-.1378c-.1052-.0841-.2565-.1045-.3224-.1707a.5774.5774,0,0,1-.1046-.2645,3.5183,3.5183,0,0,0-.0854-.3737,1.9964,1.9964,0,0,0-.361-.5366,1.2306,1.2306,0,0,1-.1464-.33c-.0194-.0591-.0365-.1128-.0525-.1561a.33.33,0,0,0-.0252-.0575.1958.1958,0,0,0-.0273-.0359.4639.4639,0,0,0,.1505-.1847c.0487-.09.0909-.19.1119-.2124a.27.27,0,0,1,.1665-.0536.1431.1431,0,0,1,.0653.0138.03.03,0,0,1,.0183.0225.6554.6554,0,0,0,.3138.4508.9761.9761,0,0,0,.3707.1578.1143.1143,0,0,0,.1177-.0913.2258.2258,0,0,0,.0024-.0321.8293.8293,0,0,0-.0647-.2645.4353.4353,0,0,0-.1755-.2335.5831.5831,0,0,1-.1663-.1747.56.56,0,0,1-.0986-.21.2307.2307,0,0,0-.1284-.19.851.851,0,0,1-.1447-.0945c-.0636-.05-.1408-.3206-.3988-.386-.1906-.0452-.2334-.1177-.4694-.2578a1.1475,1.1475,0,0,0-.54-.1188.8675.8675,0,0,0-.1832.0171.2538.2538,0,0,0-.0712.0262l-.0164.01a.534.534,0,0,0-.1089-.0577.7721.7721,0,0,0-.2344-.0439A.1268.1268,0,0,1,50.92,17.8c-.0044-.0031-.0055-.0023-.0129-.0183a.1976.1976,0,0,0-.1785-.1493.2908.2908,0,0,0-.2121.1274c-.0237.0276-.0444.05-.0624.0708a.14.14,0,0,0-.0419.0922.1.1,0,0,0,.0341.0729.4822.4822,0,0,0,.1952.0663c.0844.0175.1479.0291.1824.04l.0012,0a.2745.2745,0,0,1-.0183.0278.6.6,0,0,0-.135.3054.1228.1228,0,0,0,.0956.1269.2737.2737,0,0,0,.0433.0032c.0842-.0013.2-.03.2622-.0293l.0072.0007a.12.12,0,0,0,.014.0542.1478.1478,0,0,0,.0918.0652,1.231,1.231,0,0,0,.1712.0393.4472.4472,0,0,1,.3481.2079,1.2509,1.2509,0,0,1,.0852.1145.5264.5264,0,0,1,.0331.0558.2826.2826,0,0,0-.1227.0688.2238.2238,0,0,0-.0823.15.1061.1061,0,0,0,.0864.1027.2459.2459,0,0,0,.05.0048c.0822,0,.1965-.0226.2544-.0219H52.01a1.1311,1.1311,0,0,0,.0921.1789.3771.3771,0,0,0,.2176.188.345.345,0,0,0-.0276.0629,1.4879,1.4879,0,0,0-.0822.4555.4053.4053,0,0,0,.0486.2184.1647.1647,0,0,1,.0218.0935,1.8049,1.8049,0,0,1-.1418.4926.0865.0865,0,0,1-.0138.0282.075.075,0,0,1-.0264-.0123c-.0562-.0323-.1414-.1241-.2247-.1843a2.5893,2.5893,0,0,1-.42-.272c-.0021-.0023-.0051-.006-.0055-.0219a.6236.6236,0,0,1,.06-.1909.6977.6977,0,0,0,.0719-.241.1741.1741,0,0,0-.0224-.086.2592.2592,0,0,0-.2333-.0938,1.3941,1.3941,0,0,0-.212.0216c-.0314.005-.0576.01-.0786.0138l-.014.002c-.0127-.0141-.0391-.0434-.0638-.0717a.2332.2332,0,0,0-.16-.091.1172.1172,0,0,0-.1038.07.4519.4519,0,0,0-.0333.1277c-.0262-.0323-.0546-.0682-.0861-.1066-.0153-.0168-.027-.0308-.0391-.0416a.1.1,0,0,0-.0676-.03.0834.0834,0,0,0-.0774.0569.14.14,0,0,0-.0044.0391c0,.026.0035.0529.0035.0842a.2232.2232,0,0,1-.0406.1434.7149.7149,0,0,0-.1073.1439c-.0184.0422-.0185.066-.0456.1462a.109.109,0,0,1-.0229.0432c-.0042.0031-.003.0031-.003.0031h-.0017c-.0087.0063-.0846-.0386-.1521-.1335a.2378.2378,0,0,0-.1825-.1164c-.108.0066-.1554.0795-.1932.0965a.4805.4805,0,0,0-.1451.2307c-.0321.0852-.0638.1762-.0747.1928v-.0007a.8951.8951,0,0,1-.1781.0919.7073.7073,0,0,0-.2222.1357.5655.5655,0,0,0-.0916.2482,1.6635,1.6635,0,0,0-.0227.181c-.0291.0063-.0868.0133-.1432.02a.4456.4456,0,0,0-.2239.0757.166.166,0,0,1-.11.0309c-.0582.0007-.1262-.0146-.1921-.015a.2892.2892,0,0,0-.1509.0636c-.1494.0981-.36.2934-.4384.3506a.5348.5348,0,0,0-.0727.567.79.79,0,0,1,.1073.2225.259.259,0,0,0-.0834.2163.548.548,0,0,0,.1349.351c.1056.13.1048.167.1063.2126l-.0007.05a.304.304,0,0,0,.08.2113c.0358.0452.0776.0918.1311.17a.06.06,0,0,1,.0123.0336c.0027.0213-.0339.0749-.0942.1264a.628.628,0,0,0-.1629.1721.1608.1608,0,0,0-.013.0675.6087.6087,0,0,0,.2106.3457.2669.2669,0,0,0,.1939.0655.8665.8665,0,0,0,.3049-.0662,1.1284,1.1284,0,0,0,.2055-.12.5549.5549,0,0,1,.1314-.0768c.03-.006.1528-.0153.2589-.0213.1081-.0056.2051-.01.2057-.01a.0747.0747,0,0,0,.0612-.0373s.14-.25.233-.3759c.012-.02.0483-.0346.1053-.034a.573.573,0,0,1,.1456.021c.0418.0113.069.0216.069.0216a.0753.0753,0,0,0,.0726-.0109.0981.0981,0,0,1,.0178-.012,1.4477,1.4477,0,0,1,.415-.1584.62.62,0,0,1,.1294-.0213.0617.0617,0,0,1,.03.0047s.0005-.0014.0014.004a.2147.2147,0,0,0,.1165.1437,1.4357,1.4357,0,0,1,.3712.154c.01.009.0154.0217.0167.0549a1.4958,1.4958,0,0,1-.0556.2442.0723.0723,0,0,0-.0024.018.11.11,0,0,0,.0667.0985.201.201,0,0,0,.0879.0173.365.365,0,0,0,.1377-.0283.16.16,0,0,0,.1065-.1145c.0062-.0435.047-.1061.1488-.1856-.0024.0263-.0042.0569-.0042.0895a.4231.4231,0,0,0,.0215.1431.1892.1892,0,0,0,.0309.0529.1.1,0,0,0,.0713.0326.104.104,0,0,0,.0681-.0273.2314.2314,0,0,1,.0244.0519.1305.1305,0,0,0,.0694.0778.5352.5352,0,0,1,.0891.0569.0981.0981,0,0,1,.0344.0792,2.0587,2.0587,0,0,0,.0054.2076.1617.1617,0,0,0,.1584.1823.29.29,0,0,1,.25.1434c.0353.0706.0759.1265.1535.1308a.1733.1733,0,0,0,.1347-.0889c.024-.0359.0453-.0735.06-.0968h.0035a.3741.3741,0,0,1,.1892.1025.107.107,0,0,0,.0852.04.41.41,0,0,0,.1959-.0985.8206.8206,0,0,1,.2176-.1181,1.06,1.06,0,0,0,.1936-.0705.263.263,0,0,0,.0856-.1138,4.7849,4.7849,0,0,1,.2219-.5639,1.8758,1.8758,0,0,0,.3049-.8561,3.1388,3.1388,0,0,0-.1775-1.2024A3.7548,3.7548,0,0,0,53.7853,22.0664Zm-4.4916-2.2775a.1184.1184,0,0,0,.0862.0369h.0032a.3821.3821,0,0,0,.2037-.0964c.0356-.0272.0655-.0539.0826-.07a.6358.6358,0,0,0,.1048-.0323.297.297,0,0,0,.1-.06.1715.1715,0,0,0,.0588-.1259.2571.2571,0,0,0-.096-.1808.31.31,0,0,0-.1915-.0792.1835.1835,0,0,0-.1573.0872c-.0349.057-.09.12-.1385.1848a.3915.3915,0,0,0-.0965.2221.18.18,0,0,0,.0019.0267A.1394.1394,0,0,0,49.2937,19.7889Zm-.4-2.0074a.316.316,0,0,0,.0339-.0026c.1555-.017.4861-.0671.5389-.0664.0879-.0083.1148-.0635.1474-.11a.34.34,0,0,0,.0553-.1559.1178.1178,0,0,0-.0162-.0572.0892.0892,0,0,0-.0739-.04,4.0476,4.0476,0,0,0-.51.1039l-.0077,0a1.1761,1.1761,0,0,1-.1511-.0187c-.0538-.0081-.1006-.0176-.1006-.0176a.072.072,0,0,0-.07.0256.2353.2353,0,0,0-.0625.1536.173.173,0,0,0,.0657.1362A.2369.2369,0,0,0,48.8937,17.7815Zm9.7623,3.0258h0a.1283.1283,0,0,0-.0509-.01.2651.2651,0,0,0-.1573.0725,1.794,1.794,0,0,0-.26.3168.0772.0772,0,0,0-.0078.0595.0739.0739,0,0,0,.0406.0462.2023.2023,0,0,0,.0862.018h.0014a.4388.4388,0,0,0,.2826-.141.4052.4052,0,0,0,.14-.2491A.1176.1176,0,0,0,58.656,20.8073Zm-.4184,4.2311a.1683.1683,0,0,0-.0868.0273c-.0169.009-.02.01-.0256.01a.1168.1168,0,0,1-.0571-.0253.5889.5889,0,0,1-.0906-.0628,1.0151,1.0151,0,0,1-.0662-.1255c-.0311-.0622-.0543-.139-.0814-.2072a.3978.3978,0,0,0-.0538-.0955.1435.1435,0,0,0-.1124-.0562.1812.1812,0,0,0-.0951.03.1389.1389,0,0,0-.0575.124.4809.4809,0,0,0,.0965.2685.3165.3165,0,0,1,.0376.1125.7827.7827,0,0,1,.0182.1594l-.0012.0269a.8634.8634,0,0,1-.0785.0636.2.2,0,0,0-.0934.144.1322.1322,0,0,0,.0593.1055.3876.3876,0,0,0,.2293.0579.1463.1463,0,0,1,.0248.0013.5194.5194,0,0,0-.0617.1783c-.0166-.0189-.041-.0462-.0682-.0741a.742.742,0,0,0-.0724-.0709.1533.1533,0,0,0-.0969-.0469.0835.0835,0,0,0-.08.0632c-.0034.0086-.0187.0233-.0547.0439a.7016.7016,0,0,0-.1487.1038.33.33,0,0,0-.0764.1308c-.0115.0242-.0378.0638-.1521.1444-.2374.1713-.5315.338-.6147.5349A.2683.2683,0,0,0,56.36,26.7a.2135.2135,0,0,0,.1135.1867.568.568,0,0,0,.2485.0652c.0819.0067.1193.0173.1678.0183l.0062.0007a.1556.1556,0,0,0,.1094-.0529c.0276-.03.0544-.0669.102-.1278a3.3478,3.3478,0,0,1,.467-.4738.6756.6756,0,0,0,.2036-.4444.1393.1393,0,0,0,.0772.0442.2056.2056,0,0,0,.0525.007.209.209,0,0,0,.1761-.1151,1.8225,1.8225,0,0,0,.08-.164.5989.5989,0,0,1,.171-.2559.1625.1625,0,0,0,.074-.1381.2418.2418,0,0,0-.0488-.1387A.16.16,0,0,0,58.2376,25.0384Zm-1.84-2.8157a.1649.1649,0,0,0,.15-.1517l-.0727-.012.0727.0117a.2214.2214,0,0,0,.0023-.0389c.0024-.1211-.0971-.2512-.3359-.31a.5334.5334,0,0,0-.1229-.0223.1179.1179,0,0,0-.06.0147.09.09,0,0,0-.0424.0758.137.137,0,0,0,.0242.0712c.0329.05.0852.1078.1178.1674a.3436.3436,0,0,0,.2608.1939ZM29.4467,9.7179c-.0764.005-.1177.0573-.1585.1321a.1092.1092,0,0,0-.014.0523.1074.1074,0,0,0,.0588.0935.1635.1635,0,0,0,.0819.02.15.15,0,0,0,.1445-.0861h0a.1422.1422,0,0,0,.012-.0631.1674.1674,0,0,0-.0244-.09A.1173.1173,0,0,0,29.4467,9.7179Zm19.4562,8.7375a.3878.3878,0,0,0,.3934.3757l.0238-.001a.0727.0727,0,0,0,.0662-.0752,1.4448,1.4448,0,0,0-.0275-.2253.5182.5182,0,0,0-.1738-.3343c-.02-.0135-.0411-.029-.0593-.0423l.0259.0013a.302.302,0,0,0,.1685-.0455.17.17,0,0,0,.0755-.1408.1855.1855,0,0,0-.0152-.0729c-.0516-.1011-.1506-.1021-.23-.1054a1.3166,1.3166,0,0,0-.2441.0286l-.0078.0008a.2446.2446,0,0,1-.093-.0279.5086.5086,0,0,1-.0533-.0293.0767.0767,0,0,0-.0678-.007.1882.1882,0,0,0-.1144.1439c-.0127.0562-.015.116-.028.1952-.0148.0989-.0833.18-.0885.2961a.1716.1716,0,0,0,.0737.1418.1354.1354,0,0,0,.082.0272.3631.3631,0,0,0,.2142-.12c.0268-.0252.0525-.0494.0732-.0651A.617.617,0,0,1,48.9029,18.4554ZM55.8886,6.2447a.1771.1771,0,0,1,.022-.0634.6647.6647,0,0,1,.103-.1913c.0371-.0343.1177-.0687.3219-.0682.33,0,.2984.02.4617.0213.0391,0,.0882-.0017.1576-.0047a.9188.9188,0,0,0,.4286-.1365,1.74,1.74,0,0,1,.3724-.1842,2.3634,2.3634,0,0,1,.5561-.13.1327.1327,0,0,1,.06.0089.282.282,0,0,0,.1288.0306.2243.2243,0,0,0,.1-.0236.1239.1239,0,0,0,.0633-.106.1849.1849,0,0,0-.0478-.1136c-.0451-.0525-.1056-.1078-.1544-.1582a.6811.6811,0,0,1-.0488-.054.6252.6252,0,0,0,.13-.0478.2761.2761,0,0,0,.1421-.1712.2169.2169,0,0,0,.01-.0648c-.005-.1354-.0871-.27-.0826-.353a.081.081,0,0,1,.0174-.0569.2032.2032,0,0,0,.05-.1328.2911.2911,0,0,0-.11-.2112.4966.4966,0,0,0-.2029-.108A.7746.7746,0,0,0,58.2,3.9136c-.1162,0-.2629.0076-.3879.0076a.7351.7351,0,0,1-.2227-.02.8.8,0,0,0-.3359-.1259.1446.1446,0,0,0-.1.0335.8908.8908,0,0,0-.1282.1984c-.0194.0369-.0378.0722-.05.0994a.1632.1632,0,0,1-.0713-.0787.4036.4036,0,0,0-.2974-.1495,2.4024,2.4024,0,0,0-.3485-.0213l-.1047,0a4.3392,4.3392,0,0,0-.455.0507c-.0846.01-.1446.0253-.1832.0238a.1269.1269,0,0,1-.1058-.0513,1.8126,1.8126,0,0,0-.3261-.2217.265.265,0,0,0-.1347-.0479,1.4825,1.4825,0,0,0-.18-.01,2.4169,2.4169,0,0,0-.3452.025,4,4,0,0,1-.45.0312c-.0117-.0058-.0306-.0156-.0573-.03a2.2621,2.2621,0,0,1-.1959-.1239,2.3388,2.3388,0,0,0-.247-.1487.4928.4928,0,0,0-.1872-.0636c-.0572.0011-.2487.0368-.4038.0368a.3238.3238,0,0,1-.1357-.0193.5794.5794,0,0,0-.279-.1486c.0612-.0136.1372-.0364.2141-.06.11-.0344.2083-.0673.2083-.0673a.0725.0725,0,0,0,.0387-.1082.66.66,0,0,0-.0835-.1041.3406.3406,0,0,0-.2312-.1138,1.1831,1.1831,0,0,1-.2393-.04,1.3788,1.3788,0,0,0-.2218-.0429.1149.1149,0,0,0-.0772.0256.1249.1249,0,0,0-.027.0321.2073.2073,0,0,1-.0332-.0058,1.4213,1.4213,0,0,0-.2878-.0647.2193.2193,0,0,0-.1381.045c-.0234.0192-.0645.0459-.1033.0762a.1947.1947,0,0,0-.088.14.1252.1252,0,0,0,.0476.0957.3021.3021,0,0,0,.0966.0489,1.1825,1.1825,0,0,0,.3072.0408c.0852.0028.1133.0175.1133.0248a.1174.1174,0,0,1,.0164.05,1.1383,1.1383,0,0,0-.0256.13.4144.4144,0,0,1-.0536.1165.3346.3346,0,0,1-.0873.1014l-.0085.001c-.0156.0024-.06-.0121-.1218-.014a.3248.3248,0,0,0-.1685.05.6417.6417,0,0,1-.2688.0355h-.0725a.9439.9439,0,0,0-.1071.0038.1847.1847,0,0,0-.0617.0146c-.01-.0093-.0221-.0219-.0345-.0347a.1856.1856,0,0,0-.1273-.0669.1109.1109,0,0,0-.0515.0121,1.1067,1.1067,0,0,0-.1708.1388.38.38,0,0,1-.1339.0871h0a.2264.2264,0,0,1-.1608-.1942.9449.9449,0,0,0-.0292-.2219.3207.3207,0,0,0-.0826-.1694.1973.1973,0,0,0-.0782-.03,1.7317,1.7317,0,0,0-.3067-.0256.8394.8394,0,0,0-.1344.0083c-.053.0077-.1693.02-.28.0389-.0561.01-.1116.021-.1584.0346a.2711.2711,0,0,0-.1234.0677.4372.4372,0,0,1-.2527.0909.3166.3166,0,0,1-.1171-.0531.77.77,0,0,0-.2623-.0961,4.967,4.967,0,0,0-.6184-.041.5933.5933,0,0,0-.1424.01h-.006a.1962.1962,0,0,1-.0562-.01,1.09,1.09,0,0,0,.0925-.1061.3893.3893,0,0,0,.09-.2161.1715.1715,0,0,0-.0673-.1386,1.25,1.25,0,0,0-.567-.1324,1.9539,1.9539,0,0,0-.2934-.0309,1,1,0,0,0-.1772.0148.64.64,0,0,0-.1788.06l-.0124.0062a.0464.0464,0,0,0-.0152-.0235.0953.0953,0,0,0-.0259-.02c-.0179-.01-.0547-.0286-.1267-.0656a.9323.9323,0,0,0-.4129-.1267.3229.3229,0,0,0-.1764.0459.2107.2107,0,0,0-.0549.0424c-.0207.0266-.0075.0125-.0175.0211a.8906.8906,0,0,1-.1294.0652c-.2158.0969-.3415.1468-.3919.1626h-.0014a1.1308,1.1308,0,0,1-.2135-.0449,1.243,1.243,0,0,1-.1207-.0381c-.0164-.0057-.03-.0107-.0408-.015l-.01-.0057v0a.1328.1328,0,0,0-.0874-.026.9123.9123,0,0,0-.3255.1013c-.1318.0667-.2181.1368-.2905.1329a.1808.1808,0,0,1-.0376-.0043.9492.9492,0,0,0-.2227-.0246.7753.7753,0,0,0-.33.0632,1.3608,1.3608,0,0,0-.393.1925.8548.8548,0,0,1-.2341.1233c-.06.0221-.11.0367-.1324.0429-.05-.0037-.2417-.016-.3553-.016a.9974.9974,0,0,0-.1575.0075.2178.2178,0,0,0-.0772.0243.1087.1087,0,0,0-.0578.095.1735.1735,0,0,0,.0568.1137,1.1575,1.1575,0,0,0,.2918.1837l.0064.0036c-.0261-.0133-.0562-.0244-.0914-.039-.0888-.0352-.1363-.0428-.1568-.0511-.0186-.0083-.0415-.0233-.11-.0977a.3728.3728,0,0,0-.2681-.1339.2537.2537,0,0,0-.21.1091.5124.5124,0,0,0-.0635.2213.2627.2627,0,0,1-.0137.0672h0c-.0413.0107-.0762.023-.0919.0253a.1116.1116,0,0,1-.0055-.029c-.0051-.0562-.0082-.1357-.0163-.2052a.5306.5306,0,0,0-.02-.0962.1641.1641,0,0,0-.0252-.0474.0927.0927,0,0,0-.0729-.0353c-.072.0082-.0859.0491-.1142.0877a1.3572,1.3572,0,0,1-.1023.15.2094.2094,0,0,0-.0471.1369c.0077.1136.065.1693.0608.2565a.2561.2561,0,0,1-.0033.0472.9552.9552,0,0,0-.0211.18A.2444.2444,0,0,0,41.12,4.22a.11.11,0,0,0,.06.0611c-.0907.1056-.1929.2482-.225.2932-.0241.0133-.0769.0408-.1334.0684-.02.01-.0411.02-.0622.0288a.79.79,0,0,1,.1349-.1313.5018.5018,0,0,0,.195-.337.133.133,0,0,0-.0274-.0845h0a1.0732,1.0732,0,0,1-.0608-.3364.2174.2174,0,0,1,.0032-.0445.6019.6019,0,0,0,.0827-.2126.1812.1812,0,0,0-.1006-.1574,4.11,4.11,0,0,0-.3573-.2375.1541.1541,0,0,0-.06-.0134.3161.3161,0,0,0-.2136.14,1.0519,1.0519,0,0,1-.1336.1457.5019.5019,0,0,0-.1105.1176c-.0212.0245-.021.0288-.0676.0378a.2268.2268,0,0,0-.1914.2264.2836.2836,0,0,0,.1655.2434.985.985,0,0,1,.1694.1121.2443.2443,0,0,1,.0315.0359l.0013.0044a.0748.0748,0,0,1-.0124,0,.4317.4317,0,0,1-.123-.0253c-.0421-.0128-.0722-.0256-.0722-.0256h0a.8446.8446,0,0,0-.3222-.1055c-.08.0037-.2191-.0762-.353-.0991a.9969.9969,0,0,0-.1508-.01A.4252.4252,0,0,0,38.8776,4a1.59,1.59,0,0,1-.1053.1232.184.184,0,0,1-.0979.0636l-.0091-.0024a.8713.8713,0,0,1-.0835-.0612.1879.1879,0,0,0-.119-.0445.3415.3415,0,0,0-.1316.0344.2125.2125,0,0,1-.0851.0155c-.0514.0009-.1079-.0133-.1724-.0144a.1994.1994,0,0,0-.161.0693c-.0135.0166-.0249.0316-.0326.042-.027-.01-.0815-.0314-.1651-.0635a.4582.4582,0,0,0-.1628-.0364.2756.2756,0,0,0-.1785.0745.3336.3336,0,0,1-.1608.0749.6823.6823,0,0,1-.1417.0139c-.0769,0-.1428-.0116-.2066-.0116a.1949.1949,0,0,0-.1735.0782c-.0217.0309-.0429.0665-.0652.0989.0064-.0194.0149-.0387.0231-.059a.4642.4642,0,0,0,.0533-.1724.135.135,0,0,0-.0386-.0949.314.314,0,0,0-.2119-.0591,1.0018,1.0018,0,0,0-.1682.0166.2447.2447,0,0,0-.133.0642.22.22,0,0,0-.0391.1441.68.68,0,0,0,.0406.2316.1873.1873,0,0,1,.01.0319.1211.1211,0,0,0-.0976-.0506.1393.1393,0,0,0-.03.0024.7012.7012,0,0,0-.1034.0324.1111.1111,0,0,0,.02-.0611.1363.1363,0,0,0-.0874-.1144,1.4316,1.4316,0,0,0-.47-.175,2.7259,2.7259,0,0,1-.7523-.161,4.678,4.678,0,0,0-.5141-.222,5.6651,5.6651,0,0,0-1.0443-.1357,1.2837,1.2837,0,0,0-.2336.0185c-.1812.0351-.51.1272-.8026.2164-.1471.0452-.285.0908-.3894.1269-.0535.0186-.0963.0348-.1317.0488a.3445.3445,0,0,0-.0829.0426,1.1825,1.1825,0,0,0-.1254.1788,1.2513,1.2513,0,0,1-.1961.239c-.1835.1717-.527.549-.7519.6a1.2405,1.2405,0,0,0-.4123.2127,1.1225,1.1225,0,0,0-.1446.1278.2222.2222,0,0,0-.0716.1312.8492.8492,0,0,0,.0473.186.7835.7835,0,0,1,.0407.1547.136.136,0,0,0-.0091.0549.4741.4741,0,0,0,.0659.2134.4308.4308,0,0,0,.1925.1913.6392.6392,0,0,0,.2444.0468.5936.5936,0,0,0,.111-.01l-.004.0006a.2783.2783,0,0,0-.1662.1347.8035.8035,0,0,0-.06.2805.28.28,0,0,0,.0392.1551c.0137.02.03.04.0468.0614A.7451.7451,0,0,0,30.141,7.07a.4046.4046,0,0,0-.2778.0918c-.0966.086-.2427.2453-.295.3015a1.5,1.5,0,0,0-.1556.0279c-.0237.0057-.0468.012-.0691.02l-.0018-.0187a.6765.6765,0,0,0-.3187-.4238.6831.6831,0,0,1-.1633-.1928,1.2043,1.2043,0,0,0-.1715-.2308v0a1.7527,1.7527,0,0,0,.0425-.2038.2167.2167,0,0,0-.0489-.1387.4474.4474,0,0,0-.1594-.1228.64.64,0,0,1-.1329-.0723.212.212,0,0,0-.1288-.0451.3442.3442,0,0,0-.2558.1793l-.0086.01h0a.8654.8654,0,0,0-.1349-.0313.1479.1479,0,0,0-.0617.0126.19.19,0,0,0-.1156.1885.4153.4153,0,0,0,.0688.22c.0152.0211.0338.0522.0562.0878a.3325.3325,0,0,0-.1494,0,.2766.2766,0,0,0-.1746.1311.2877.2877,0,0,1-.035.0471l-.0034.0038a.2911.2911,0,0,0-.14.0328.1682.1682,0,0,0-.0883.1512.2559.2559,0,0,0,.0067.0569,1.4348,1.4348,0,0,1,.0421.158l0,.0046-.0078.0074a.1417.1417,0,0,0-.068.1266.293.293,0,0,0,.0623.1692.2472.2472,0,0,0,.1585.1051h0a.1461.1461,0,0,0,.0364.003.81.81,0,0,0,.3426-.1432.4441.4441,0,0,0,.2783-.3655,1.0217,1.0217,0,0,0-.0256-.2349l.0318.0179.0321-.0665-.0321.0665c.0665.0312.1541.0588.2229.0861l.0428.0179a1.505,1.505,0,0,0-.1628.1409.597.597,0,0,0-.1556.2193.1274.1274,0,0,0-.0048.0346c.01.1111.0946.15.1568.1918l.0551.03a.2024.2024,0,0,0-.0127.068.1192.1192,0,0,0,.0692.1119.1111.1111,0,0,0,.0517.0117.2016.2016,0,0,0,.137-.0822c.03-.0276.0486-.0394.0664-.0386.0827-.0028.29.0726.4282.0822-.1012.0228-.21.0516-.3169.0727a.48.48,0,0,0-.1889.0829.2869.2869,0,0,1-.1524.0487.42.42,0,0,0-.1493.0376.1323.1323,0,0,0-.0824.1138.1259.1259,0,0,0,.065.1033.345.345,0,0,0,.1177.0409.91.91,0,0,1,.2761.1053c.0878.0507.14.1154.14.1464.002.0223.0025.0462.0025.0695a.8643.8643,0,0,1-.08.3587V9.0511a.203.203,0,0,1-.0979.0164c-.0987,0-.2334-.0226-.34-.024-.1006.0014-.29-.0282-.4508-.0282a.5372.5372,0,0,0-.2245.0358.3737.3737,0,0,0-.1457.3511,1.1458,1.1458,0,0,0,.0371.2855.254.254,0,0,1,.0117.0783.1622.1622,0,0,1-.06.13.2594.2594,0,0,0-.0717.191.249.249,0,0,0,.07.1836.7262.7262,0,0,1,.0846.1211c.0341.0486.0511.1.127.1291a.1329.1329,0,0,0,.046.006c.053,0,.11-.013.1583-.0128.0426,0,.0635.0105.0685.0174a1.1812,1.1812,0,0,1,.0826.1374.7543.7543,0,0,0,.0464.0739l.0077.0088-.0107.006a2.2959,2.2959,0,0,0-.235.1883c-.0324.0288-.0605.0536-.0814.0694l-.02.0145a.1454.1454,0,0,0-.0747.0361.8178.8178,0,0,0-.2318.38,1.2246,1.2246,0,0,0-.0479.3562c-.0068.0963-.0165.13-.0579.153a2.3981,2.3981,0,0,0-.5668.4174,1.7615,1.7615,0,0,0-.1964.3966,3.0767,3.0767,0,0,1-.2007.4282.4335.4335,0,0,0-.0722.2432,1.3837,1.3837,0,0,0,.09.3616,1.3433,1.3433,0,0,1,.0548.3111.4435.4435,0,0,1-.072.2509,1.3964,1.3964,0,0,0-.1426.2775.5292.5292,0,0,1-.0262.0582l-.0016.0008a.11.11,0,0,0-.04.0205.0878.0878,0,0,0-.0314.0655.1354.1354,0,0,0,.0287.0732.3871.3871,0,0,1,.09.1737.1617.1617,0,0,1,.0024.0326c0,.0552-.0218.1247-.0229.2092a.3251.3251,0,0,0,.1964.2933.79.79,0,0,1,.4278.4437,2.1451,2.1451,0,0,0,.4388.5626c.0013.0012.249.2648.3785.3839a.24.24,0,0,0,.158.0812.1372.1372,0,0,0,.1173-.0712.3919.3919,0,0,0,.0421-.1131c.0055-.0225.02-.0389.08-.0563a.9952.9952,0,0,1,.239-.0206c.1377,0,.2512.0275.3944.0283a.8986.8986,0,0,0,.15-.0123,1.6121,1.6121,0,0,0,.4805-.2233.7491.7491,0,0,1,.3087-.1242.18.18,0,0,1,.1065.0338.371.371,0,0,1,.1313.1891.7279.7279,0,0,0,.107.2331.24.24,0,0,0,.1869.0868.4928.4928,0,0,0,.3105-.147c.0161-.0137.0284-.0263.0381-.0343a.7944.7944,0,0,0,.0963.0752c.0929.0587.1292.11.126.138a.1687.1687,0,0,1-.0558.1015.4848.4848,0,0,0-.11.3214,1.1691,1.1691,0,0,1-.0448.32.7026.7026,0,0,0-.0555.2236.1992.1992,0,0,0,.05.136.5849.5849,0,0,0,.1177.0932,1.46,1.46,0,0,1,.2609.3846c.1.1812.187.3594.237.43a.2522.2522,0,0,1,.02.1258c0,.0665-.0066.149-.0066.2339a.6349.6349,0,0,0,.05.2808,1.0092,1.0092,0,0,1,.1271.2949.0666.0666,0,0,1-.0259.0517.92.92,0,0,0-.3464.6685c-.0016.0309-.0016.0612-.0016.09a1.5223,1.5223,0,0,0,.12.6286c.0562.115.1956.43.27.5567a1.6615,1.6615,0,0,1,.1582.5513c.0021.0276.0033.0572.0033.0888,0,.0606-.004.1245-.004.187a.4659.4659,0,0,0,.0548.26,2.1784,2.1784,0,0,0,.2457.3926.6212.6212,0,0,1,.1137.2292,1.2931,1.2931,0,0,1,.0347.1481l.0035.0139a.612.612,0,0,1,.02.0732,1.2989,1.2989,0,0,1,.0318.2083.9451.9451,0,0,0,.041.2482.3562.3562,0,0,0,.1623.192.4627.4627,0,0,0,.2325.0822h.0033a.2131.2131,0,0,0,.1655-.0809.0965.0965,0,0,1,.0386-.02,1.2375,1.2375,0,0,1,.3628-.0433,1.1944,1.1944,0,0,1,.1367.006l.0425.0007a1.0033,1.0033,0,0,0,.586-.2682,5.7142,5.7142,0,0,0,.5547-.6764c.0426-.0519.1182-.1307.1832-.2152a.4935.4935,0,0,0,.13-.2745.1609.1609,0,0,0-.0039-.0376,1.3816,1.3816,0,0,1-.0376-.196c.0029-.0369.0042-.0429.0313-.0612.0538-.0319.15-.0828.2357-.14.0845-.0612.1688-.1095.19-.2143a.1343.1343,0,0,0,.0024-.03,3.3212,3.3212,0,0,0-.13-.6022l-.0018-.0094a.9224.9224,0,0,1,.1743-.3278.76.76,0,0,1,.2539-.1884c.0531-.0283.1054-.0544.1487-.0784a.3873.3873,0,0,0,.1108-.0773,1.5417,1.5417,0,0,0,.2541-.6047,1.0409,1.0409,0,0,0,.0063-.11c-.001-.1427-.0267-.2851-.0259-.3806a.2244.2244,0,0,1,.0122-.0865.2941.2941,0,0,0,.0316-.1314.451.451,0,0,0-.1556-.3.5589.5589,0,0,1-.082-.2831c-.0071-.0614-.0109-.1208-.0163-.1718a.354.354,0,0,0-.0314-.1323h0a.271.271,0,0,1-.01-.0893.8443.8443,0,0,1,.0208-.1842.3274.3274,0,0,1,.0218-.0645l.0066-.0107a.3129.3129,0,0,0,.1022-.0931c.0972-.1233.2213-.3394.3016-.4457.0564-.076.1638-.2287.2757-.3661a.9011.9011,0,0,1,.2678-.2557.6281.6281,0,0,0,.2942-.2048.6049.6049,0,0,0,.1688-.31,1.991,1.991,0,0,1,.2074-.3982c.0516-.0884.1049-.1747.1459-.2486a.6221.6221,0,0,0,.0806-.1846c.0036-.0338.036-.1414.0662-.2519a1.4634,1.4634,0,0,0,.0631-.33.2092.2092,0,0,0-.0306-.12.1518.1518,0,0,0-.1288-.0545,2.2873,2.2873,0,0,0-.6475.2141.9383.9383,0,0,1-.4206.1449l-.0332-.0014c-.0488-.005-.06-.0164-.067-.0252a.1.1,0,0,1-.0139-.0613c0-.0429.01-.0971.0109-.1513l-.0014-.0313a.5247.5247,0,0,0-.0433-.1235.1266.1266,0,0,0,.0236.0155.2388.2388,0,0,0,.0984.0175,1.0885,1.0885,0,0,0,.3036-.06,1.0672,1.0672,0,0,0,.2308-.0977,2.8405,2.8405,0,0,1,.6635-.32.4126.4126,0,0,0,.2252-.1032.4615.4615,0,0,1,.19-.0991,1.259,1.259,0,0,0,.5372-.3848,2.5,2.5,0,0,0,.3791-.6054c.0284-.0737.144-.1443.1531-.2926a.2234.2234,0,0,0-.0278-.1058.8394.8394,0,0,0-.2447-.245.8087.8087,0,0,0-.2845-.1447c-.004-.0009-.0046,0-.0151-.0122a.5739.5739,0,0,1-.0412-.1031.2464.2464,0,0,0-.03-.0656.1131.1131,0,0,0-.0931-.0524.1239.1239,0,0,0-.0956.0443c-.0521.0669-.0533.1138-.1384.1657a2.12,2.12,0,0,0-.1937.1437.357.357,0,0,1-.115.0674l.0008-.0206a.3076.3076,0,0,0-.1063-.23c-.0782-.0758-.13-.1228-.1562-.1557a.12.12,0,0,1-.031-.092.2592.2592,0,0,0-.0632-.1475c-.0986-.1246-.268-.2883-.2744-.365l-.001-.016a.24.24,0,0,1,.0575-.1364.1747.1747,0,0,1,.0809-.0612l.0038.0067c.0674.1364.12.3919.3385.5165a1.9525,1.9525,0,0,1,.2443.1695,1.0382,1.0382,0,0,0,.1983.1344.1168.1168,0,0,0,.0474.009.45.45,0,0,0,.2058-.09c.0309-.02.0607-.0385.0832-.0509l.0286-.0135c.0232.0244.0739.1.1232.1707a.5762.5762,0,0,0,.2108.2086,1.51,1.51,0,0,0,.3489.0574c.1322.01.2546.0144.2937.0144.0145,0,.0473.0012.0882.0012a1.1946,1.1946,0,0,0,.2065-.0152.2653.2653,0,0,0,.1892-.1061c.0247-.0446.0391-.0552.0461-.0579a.1011.1011,0,0,1,.0441-.005,1.2048,1.2048,0,0,1,.1077.15c.0514.0712.09.1447.1758.18.0618.0191.1236.0243.1621.0419.0364.0207.05.0245.0545.0989l-.001.02a.3425.3425,0,0,0-.0019.0446.6445.6445,0,0,0,.0657.2894.2733.2733,0,0,0,.1792.1587.1153.1153,0,0,0,.0216.0015.41.41,0,0,0,.2378-.139c-.0005.13-.0047.2966-.0124.3752l-.0013.0269a4.1445,4.1445,0,0,0,.1581.7016l.0022.0062c.0008.0015.2087.5155.2679.6381.0324.0657.1038.1805.17.3a.8333.8333,0,0,1,.1155.2849,1.3311,1.3311,0,0,0,.0264.2643.3971.3971,0,0,0,.0439.1177.1375.1375,0,0,0,.1159.0747.1572.1572,0,0,0,.1216-.0729c.0751-.1011.1381-.2795.2076-.3966l.0258-.0476a1.079,1.079,0,0,0-.0341.1044,1.2094,1.2094,0,0,0-.0324.2737.693.693,0,0,0,.0263.2018.22.22,0,0,0,.119.1491.1879.1879,0,0,0,.0716.0137.235.235,0,0,0,.1969-.14.495.495,0,0,0,.0585-.2206.2106.2106,0,0,0-.0278-.1122,1.2977,1.2977,0,0,1-.0628-.1824.5026.5026,0,0,0-.0525-.1168.15.15,0,0,0-.123-.076.1476.1476,0,0,0-.0685.0183v0a.1847.1847,0,0,0-.0639.0693,2.8842,2.8842,0,0,0,.1431-.5217,2.9943,2.9943,0,0,0,.0436-.6011c0-.0752.051-.1537.24-.2522.2275-.1218.3644-.4106.519-.5445a1.4146,1.4146,0,0,0,.1924-.2677.263.263,0,0,1,.2482-.1136,1.3948,1.3948,0,0,0,.3093-.0151.2668.2668,0,0,0,.1386-.11.4728.4728,0,0,1,.0573-.0609l.0082-.0057a.2492.2492,0,0,1,.0167.0516,1.05,1.05,0,0,0,.1722.3287c.07.0992.1447.1883.1587.2109a.7645.7645,0,0,1,.1017.367c0,.0123-.0007.0265-.0017.04-.0027.0346-.003.07-.003.1058a1.1022,1.1022,0,0,0,.0234.2465.3723.3723,0,0,0,.0361.0962.1226.1226,0,0,0,.102.0635.1664.1664,0,0,0,.1173-.07,1.4479,1.4479,0,0,0,.1508-.2387.6139.6139,0,0,1,.0561-.0386.2682.2682,0,0,1,.1013-.0429.1016.1016,0,0,1,.0042.033v.0144c-.0027.0389-.0032.0792-.0032.1191,0,.2356.0317.4675.03.6a.8081.8081,0,0,0,.1148.3327c.0186.0346.0376.0666.0562.0952l-.01.0005a.1692.1692,0,0,0-.1274.1083.4106.4106,0,0,0-.0285.154.4.4,0,0,0,.05.2015c.05.068.1023.0765.1282.1013a.342.342,0,0,1,.0988.2076,3.8644,3.8644,0,0,0,.2714.7321.8073.8073,0,0,0,.1963.22c.0788.0675.16.1321.1958.1673a.1589.1589,0,0,0,.1157.0494.1839.1839,0,0,0,.1775-.1831.1815.1815,0,0,0-.0229-.0874,1.2154,1.2154,0,0,1-.1733-.34,1.6276,1.6276,0,0,0-.2043-.528c-.1215-.2131-.2233-.27-.2788-.3816a1.681,1.681,0,0,0-.2319-.2938.084.084,0,0,0,.0611-.0414.121.121,0,0,0,.0111-.0474,1.2992,1.2992,0,0,1,.0534-.2291,1.45,1.45,0,0,0,.0589-.2881c.0312.0238.0777.0616.1309.1063a1.0134,1.0134,0,0,1,.2055.2615,1.749,1.749,0,0,1,.0814.1607L46,15.7375s.0444.0481.0919.1075a.7823.7823,0,0,1,.1027.15.1168.1168,0,0,0,.1136.0789.3045.3045,0,0,0,.1675-.0669.3571.3571,0,0,0,.1218-.14c.0473-.1.0426-.1094.1349-.1413a1.1637,1.1637,0,0,0,.1859-.0563.3.3,0,0,0,.1589-.2136,1.6382,1.6382,0,0,0,.0857-.3985.5334.5334,0,0,0-.0962-.31,3.3022,3.3022,0,0,0-.3888-.5458.75.75,0,0,1-.1417-.2288c-.0214-.0462-.0375-.0888-.0482-.1181.0726-.0768.2524-.2708.3224-.3531.0168-.0207.0273-.0228.0373-.0228.0174-.0023.0512.0214.0562.0665l.0006.0085a.3813.3813,0,0,1-.0591.1437.8024.8024,0,0,0-.0953.2983.5447.5447,0,0,0-.003.0565.2763.2763,0,0,0,.2377.3068.1435.1435,0,0,0,.123-.0635c.0284-.041.0775-.1128.1213-.1817.02-.0339.0413-.0679.0565-.0985a.2248.2248,0,0,0,.0306-.0943.1117.1117,0,0,0-.04-.084c-.0418-.04-.0549-.0193-.0721-.1384v-.0133a.1951.1951,0,0,1,.0574-.1344.1481.1481,0,0,1,.0835-.0513.1748.1748,0,0,0,.0988.0228,1.7409,1.7409,0,0,0,.7062-.2229c.2336-.1519.363-.4476.4716-.542.0612-.0563.1952-.1765.3169-.309a.7649.7649,0,0,0,.24-.4118.1566.1566,0,0,0-.0023-.0266,2.0185,2.0185,0,0,0-.1043-.6884,3.3681,3.3681,0,0,0-.2977-.4674,1.157,1.157,0,0,1,.12-.0552.6736.6736,0,0,0,.2347-.1471.27.27,0,0,0,.08-.1808.2092.2092,0,0,0-.1914-.2111.1384.1384,0,0,0-.0325.0048,1.6607,1.6607,0,0,1-.2655.05l-.0189-.0016c-.02.0053-.0749-.0719-.1919-.183-.0167-.0163-.0167-.0238-.0174-.0327a.0825.0825,0,0,1,.0248-.0525.088.088,0,0,1,.023-.0183l.0064-.003.022.002a.384.384,0,0,0,.208-.1135c.0608-.0517.1206-.1107.1607-.151a.7247.7247,0,0,0-.0287.1775.2071.2071,0,0,0,.0191.097.1253.1253,0,0,0,.0956.0707.1031.1031,0,0,0,.021.0016.5512.5512,0,0,0,.27-.1312c.04-.03.0789-.06.1079-.0805l.0071-.0039a.4743.4743,0,0,1,.0337.1636.1343.1343,0,0,1-.0077.05.5037.5037,0,0,0-.0349.185.29.29,0,0,0,.0124.0916.1075.1075,0,0,0,.0976.0759.1034.1034,0,0,0,.0259-.0033.3786.3786,0,0,0,.1227-.085l.0247-.0215a.24.24,0,0,1,.074.1534.2186.2186,0,0,1-.015.0735c-.0356.1064-.1165.1617-.1262.2825a.2152.2152,0,0,0,.1115.1708.3109.3109,0,0,0,.1767.0651c.1233-.0051.18-.087.2547-.1311a.6868.6868,0,0,0,.1992-.5031.3315.3315,0,0,0-.0365-.1635c-.037-.0614-.0954-.1479-.1447-.2291a.8369.8369,0,0,1-.0782-.1517c.0261-.0143.0859-.0323.1421-.0585a.199.199,0,0,0,.1327-.1727.2621.2621,0,0,1,.1558-.2186.6741.6741,0,0,0,.156-.1386c.0179-.02.0342-.0371.0479-.05a.39.39,0,0,0,.0989.0572.5047.5047,0,0,0,.177.036.21.21,0,0,0,.1774-.0776,7.2366,7.2366,0,0,1,.6461-.6542,1.2843,1.2843,0,0,0,.3854-.7052c.0166-.0673.0359-.1284.0533-.1869.0015.0231.0032.0462.0032.0691,0,.0363-.0017.0739-.0047.1123-.0035.0514-.0062.116-.0062.1853,0,.0935.0032.1943.0092.279.0032.0413.0061.08.0111.1108a.2267.2267,0,0,0,.0239.0835.3911.3911,0,0,0,.09.1048.2441.2441,0,0,0,.1547.0712.1257.1257,0,0,0,.1266-.1567,1.3908,1.3908,0,0,0-.0276-.2151c-.0141-.0672-.0271-.1349-.0259-.1409a.0545.0545,0,0,1,.0077-.02.2415.2415,0,0,1,.0934-.0932.1025.1025,0,0,0,.0673-.0705.23.23,0,0,0,.0082-.069.89.89,0,0,0-.1034-.3851.8748.8748,0,0,0-.0911-.1245l-.0027-.0036a.3291.3291,0,0,0,.0465-.0563.2643.2643,0,0,0,.0434-.1287.1188.1188,0,0,0-.0357-.0865c-.0031-.007-.0077-.0276-.0161-.0532a.1237.1237,0,0,0-.116-.0892.1536.1536,0,0,0-.0545.01c-.0063.0042-.0765.0037-.1424.013a.2366.2366,0,0,0-.0745.0253.2746.2746,0,0,0-.228-.1444.1945.1945,0,0,0-.0324.0023c-.1518.0256-.2186.1-.3032.1a.168.168,0,0,1-.0013-.03c0-.0262.0031-.0577.0031-.0885a.1425.1425,0,0,0-.0088-.0567.0917.0917,0,0,0-.0839-.06.1436.1436,0,0,0-.0869.0377c-.0288.0238-.0553.0511-.0789.072a.1643.1643,0,0,1-.0214.0164.0872.0872,0,0,1,.0191-.029,1.0357,1.0357,0,0,1,.3488-.2056,1.5243,1.5243,0,0,0,.4019-.334c.0649-.0662.1284-.1306.1812-.176a.3513.3513,0,0,1,.0986-.07.5674.5674,0,0,1,.0649-.0023c.1312,0,.3593.024.5876.024.0465,0,.0926-.0016.1394-.0037a1.9791,1.9791,0,0,0,.4349-.1086c.008.0008.0067,0,.0181.0074a.8228.8228,0,0,0,.4516.1862.3673.3673,0,0,0,.0382-.0022.2678.2678,0,0,0,.14-.0407c.0383-.0271.0666-.0609.1642-.1433a3.32,3.32,0,0,0,.4873-.3962.3774.3774,0,0,1,.236-.1328l.01,0c.0016.0211.0016.0439.0016.0675v.0516a.3158.3158,0,0,0,.0192.1272.1408.1408,0,0,0,.1357.0831L55.44,5.87c-.0488.0376-.0874.0688-.1133.0861a2.2636,2.2636,0,0,1-.2955.1384.8038.8038,0,0,0-.337.2462c-.1227.1757-.2248.27-.2248.4808,0,.0163,0,.0321.0008.05.02.2086.1754.4272.1707.5742a.1747.1747,0,0,1-.0212.0868,1.7479,1.7479,0,0,0-.1618.5074.0722.0722,0,0,0,.0488.08.071.071,0,0,0,.0872-.0317,1.7866,1.7866,0,0,1,.1093-.1573,1.58,1.58,0,0,1,.278-.29,2.6619,2.6619,0,0,0,.4732-.5438.5222.5222,0,0,1,.1714-.0906.52.52,0,0,0,.1132-.0606.1672.1672,0,0,0,.0682-.1291,1.6363,1.6363,0,0,1,.1076-.38.2163.2163,0,0,0,.0129-.0719.1954.1954,0,0,0-.0294-.0976C55.8886,6.2492,55.8892,6.251,55.8886,6.2447ZM35.14,4.8147a1.1122,1.1122,0,0,0,.374-.07.2746.2746,0,0,0-.0272.146c0,.0137,0,.0275,0,.0413,0,.02-.0017.04-.0027.0507a.3562.3562,0,0,1-.0852.0261.1923.1923,0,0,1-.112-.0528.3049.3049,0,0,0-.1732-.0809.1212.1212,0,0,0-.09.04.306.306,0,0,0-.0241.0263.4388.4388,0,0,1-.1323.07l0-.002c-.0026-.0321-.003-.0572-.003-.0811V4.91a.2828.2828,0,0,0-.0317-.152A.8713.8713,0,0,0,35.14,4.8147Zm-1.0448.8875c.0152-.0376.0167-.0323.0448-.0372a.2578.2578,0,0,1,.141.0628.2673.2673,0,0,1,.0552.0571.1084.1084,0,0,1,.0141.0279l-.0044.002a.1051.1051,0,0,1-.0391.0062.3181.3181,0,0,1-.15-.0449c-.047-.027-.0654-.0589-.0624-.0667V5.7042l-.0688-.0226Zm-.3883,3.4392a1.425,1.425,0,0,0,.2862-.4256c.0606-.1167.117-.1292.1561-.1307l.0215.0015a.8326.8326,0,0,1,.1117.1613c.0461.0814.0913.1717.1088.2138a.1263.1263,0,0,0,.1173.0818.28.28,0,0,0,.1424-.0543c.0361-.0255.0709-.0521.0824-.0588a.442.442,0,0,0,.1887-.2683c0-.0061.0105-.0251.0512-.0429a.33.33,0,0,1,.0885-.0245.123.123,0,0,1-.039.019.1763.1763,0,0,0-.0631.0353.1075.1075,0,0,0-.0361.0773A.1523.1523,0,0,0,35,8.8443a.7309.7309,0,0,0,.1442.0742,4.3587,4.3587,0,0,1,.4914.3606.27.27,0,0,1,.13.2091c-.0018.0371-.0108.0421-.0138.0428h0a2.2873,2.2873,0,0,1-.4633.0512.589.589,0,0,1-.0789-.0043c-.0829-.003-.2487-.1564-.4577-.1993a.981.981,0,0,0-.1775-.0166.4238.4238,0,0,0-.375.1515c-.0062.0205-.0694.0434-.1571.0414-.0742,0-.1528-.01-.214-.01a.3576.3576,0,0,0-.18.0673.9028.9028,0,0,0,.0124-.1254.175.175,0,0,0-.0671-.161A.3891.3891,0,0,1,33.7065,9.1414ZM32.5,5.2113a.4445.4445,0,0,0,.1246-.2868.384.384,0,0,0-.01-.0836c.0111-.0014.0257-.0029.0441-.0037.099-.0063.2015-.0128.2828-.0128.0428,0,.0813.0023.108.0051a1.2767,1.2767,0,0,1-.182.15,3.3655,3.3655,0,0,1-.3191.204.3317.3317,0,0,0-.055.0359ZM30.6147,6.309a.26.26,0,0,1,.06-.0988c.0132-.0133.0251-.0262.0364-.0357a1.2914,1.2914,0,0,0,.07.2191.7286.7286,0,0,1,.0543.1921l-.0005.0108a.31.31,0,0,0-.0137.09.2191.2191,0,0,0,.0348.1226.1514.1514,0,0,0,.1258.0643.1426.1426,0,0,0,.0324-.0031c.1082-.0183.6213-.1508.6223-.1508l.0154-.0049a.3255.3255,0,0,0,.1836-.2537.2325.2325,0,0,0-.005-.0431l-.0008-.0118a.3087.3087,0,0,1,.0822-.1554c.0483-.06.1006-.1076.1264-.1387a.45.45,0,0,0,.1186-.2551.1891.1891,0,0,0-.1355-.1786c-.062-.0223-.1162-.0389-.1479-.0544A.0766.0766,0,0,1,31.85,5.61a.0665.0665,0,0,1,.0092-.02.5857.5857,0,0,1,.0625-.0747.3048.3048,0,0,1,.225-.0913.4743.4743,0,0,0,.2788-.1341.292.292,0,0,0-.0532.1742.3631.3631,0,0,0,.0675.2093,1.3572,1.3572,0,0,1,.0773.1743.4217.4217,0,0,0,.06.101.1646.1646,0,0,0,.1227.0592.1506.1506,0,0,0,.0414-.0057,1.924,1.924,0,0,1,.3732-.133l.0194.0013a.8862.8862,0,0,0,.1068.0053c.13,0,.2965-.0174.349-.0206a.4124.4124,0,0,1,.0612.0677.2991.2991,0,0,1,.0351.0614c-.0886.0191-.227.0093-.45.0238-.1177.0086-.2424.0128-.3419.0211a.9654.9654,0,0,0-.1293.0186.1853.1853,0,0,0-.054.022.0922.0922,0,0,0-.0462.0785.0991.0991,0,0,0,.03.0682.938.938,0,0,0,.1417.0992c.0183.0129.035.0257.0473.0355a.0725.0725,0,0,1-.0321.0062c-.05.0042-.1383-.0486-.2575-.0659l-.0239,0a.2708.2708,0,0,0-.2226.1633,1.1555,1.1555,0,0,0-.099.2386.3526.3526,0,0,0-.0144.1083c0,.0444.0041.0856.0041.1163a.125.125,0,0,1-.0012.0229.1835.1835,0,0,1-.0309-.01.9506.9506,0,0,0-.34-.0759.2816.2816,0,0,0-.1449.0313A3.0448,3.0448,0,0,1,31.37,7.03a.0779.0779,0,0,1-.0281.0069.2642.2642,0,0,0-.1989-.0944l-.0133,0c-.1821,0-.1821,0-.1823,0l-.01.0006-.0792.0117a.2707.2707,0,0,1-.0759-.1472l-.0008-.03c0-.0648.0182-.1381.02-.2082a.1426.1426,0,0,0-.0729-.1369.2314.2314,0,0,0-.0974-.0176.56.56,0,0,0-.122.015A.1637.1637,0,0,0,30.6147,6.309Zm1.428,3.4178a3.7506,3.7506,0,0,0-.3778-.2744.7455.7455,0,0,1-.33-.2842.6413.6413,0,0,0-.1905-.2032c-.06-.049-.0836-.0755-.0832-.1151l.0011-.0083a.049.049,0,0,1,.0032-.0216h0l.0042-.0012a.3769.3769,0,0,1,.1847.1289c.125.1464.4065.3314.489.4332.1217.1351.2564.1838.28.29A.3617.3617,0,0,0,32.0427,9.7268ZM29.17,7.7978l0,.0018c-.0147.0316-.0152.0366-.05.0446a.2219.2219,0,0,0-.0294.0043A.3976.3976,0,0,0,29.17,7.7978Zm5.2507,10.1845a.4908.4908,0,0,1-.0783.1078.1647.1647,0,0,1-.0312.0248l-.0032.001a.1137.1137,0,0,1-.0159-.04.4225.4225,0,0,1-.0117-.1168.7257.7257,0,0,1,.0338-.2357l.0063-.0062a.2565.2565,0,0,1,.1224-.0306h.0048a.1466.1466,0,0,1,.0535.0073l.0055.002a.0959.0959,0,0,1,.0034.0266A.6089.6089,0,0,1,34.4206,17.9823Zm.0556-6.4584c-.0087.0169-.011.0174-.011.0174a.0765.0765,0,0,1-.0348.0045.6288.6288,0,0,0-.1407.011.2355.2355,0,0,0-.1889-.1163.1856.1856,0,0,0-.0565.0092c-.079.0246-.1867.0362-.2945.077a.0957.0957,0,0,0,.0029-.0238.1053.1053,0,0,0-.0152-.0566.2182.2182,0,0,0-.1532-.0786,1.1476,1.1476,0,0,0-.1868-.0124c-.1073,0-.2191.0071-.2968.0071-.1458.0038-.29-.12-.4585-.1654a.2375.2375,0,0,0-.0484-.0055.4284.4284,0,0,0-.2653.13,2.1477,2.1477,0,0,0-.221.2338c-.0511.0594-.0752.0627-.1016.064-.04.0037-.1048-.0364-.2056-.04a.46.46,0,0,1-.1858-.0945c-.0712-.0514-.1281-.1032-.1281-.1026l-.0173-.012c-.0009,0-.0622-.03-.1364-.06a.7188.7188,0,0,0-.2317-.0642.1313.1313,0,0,1-.0491-.023,1.7373,1.7373,0,0,1-.1454-.1085c-.0237-.02-.0478-.0379-.07-.0532a.1661.1661,0,0,0-.08-.0311.2073.2073,0,0,1-.0453-.0377.0916.0916,0,0,1-.0236-.0416l.0032-.0022a.2243.2243,0,0,1,.0822-.0168.1282.1282,0,0,0,.0779-.0369.14.14,0,0,0,.0345-.0978.9987.9987,0,0,0-.05-.233c-.0686-.24-.2264-.3346-.3611-.33a.4571.4571,0,0,0-.2044.0527l-.0145.0047a3.5414,3.5414,0,0,1-.5075.0234c-.1487,0-.2732-.0023-.2976-.0023a.4308.4308,0,0,0-.1224.0314,4.5988,4.5988,0,0,0-.4995.2115c-.1174.0612-.3253.1389-.4025.1805l-.01.0009c-.0464,0-.1638-.0234-.2744-.0246.0137-.03.0267-.06.0411-.09a.3882.3882,0,0,1,.0237-.0431.2429.2429,0,0,0,.0873.0148,2.5182,2.5182,0,0,0,.2992-.0519.3585.3585,0,0,0,.2062-.132.8156.8156,0,0,1,.1464-.1461.4062.4062,0,0,0,.0685-.0549.1206.1206,0,0,0,.0365-.082.1442.1442,0,0,0-.0331-.083.3339.3339,0,0,1-.0309-.0526l-.0015-.0053a.2129.2129,0,0,1,.0638-.096c.0435-.0471.1026-.1.1508-.1569.0244-.0312.0648-.0376.1317-.0442a.3251.3251,0,0,0,.1093-.0236.1713.1713,0,0,0,.0939-.109c.0227-.072.0354-.1592.0556-.2239a.2861.2861,0,0,1,.0292-.0694l.005-.005a2.6164,2.6164,0,0,0,.372.1.5013.5013,0,0,0,.2394-.109c.073-.0513.1443-.1085.1612-.1175V9.129l.0005.0016a.1057.1057,0,0,1,.035-.0052.21.21,0,0,1,.0982.0248.0863.0863,0,0,1,.05.0637.5583.5583,0,0,0,.171.2657,1.0652,1.0652,0,0,0,.1853.15c.0417.0248.1408.0634.2473.1076.0518.0217.1024.044.1444.0629a.7918.7918,0,0,1,.073.0383.7106.7106,0,0,1,.1446.2946c.0179.0813.0611.1546.15.16a.1493.1493,0,0,0,.1351-.1493c.0008-.014.0008-.0261.0008-.0389,0-.0761-.0194-.1609-.0209-.2108l.0167,0a.5521.5521,0,0,0,.1983-.0426.0755.0755,0,0,0,.0424-.0574V9.7908a2.5071,2.5071,0,0,0,.1717.2828c.0132.02.0617.1321.1061.2412.0455.1108.09.2206.1145.27a.13.13,0,0,0,.1185.072.4344.4344,0,0,0,.251-.1359c.0219-.0226.07-.0482.12-.0868a.2767.2767,0,0,0,.111-.1913l0-.0228a.3057.3057,0,0,0-.1158-.2174,1.0062,1.0062,0,0,0-.0824-.0669c.0109-.0065.0242-.013.0368-.0193a.5119.5119,0,0,0,.1245-.0787.5067.5067,0,0,1,.1361-.1018l.0008.0014A.9933.9933,0,0,1,33.1924,10c.0012.0594.0027.1186.0042.17a.4269.4269,0,0,0,.0184.1264.218.218,0,0,0,.0889.09c.0515.0329.1167.0652.1745.0981a.4.4,0,0,1,.1073.0755.3984.3984,0,0,0,.3085.1228.1961.1961,0,0,0,.1331-.0394h.0073a1.227,1.227,0,0,1,.2484.0619.1352.1352,0,0,0,.05.0074,1.5187,1.5187,0,0,0,.3272-.0732c.0462-.0153.0909-.0342.1157-.0442l.0006.0233-.0006.03a1.3438,1.3438,0,0,1-.1792.6735A.8012.8012,0,0,0,34.4762,11.5239Zm1.4247,3.3906c-.0373-.0426-.047-.0716-.1038-.0952v0A.59.59,0,0,1,35.68,14.69a.9576.9576,0,0,1-.1316-.2434,2.53,2.53,0,0,0-.29-.62,7.5623,7.5623,0,0,1-.2861-.722c-.109-.2274-.2068-.5268-.3074-.7492-.0115-.0271-.0244-.0536-.0379-.0782a.6221.6221,0,0,1,.1552-.0331l.0124.0011a4.95,4.95,0,0,1,.2074.5354.2591.2591,0,0,0,.1361.1987c.0453.0325.0485.0229.0576.0792a1.8523,1.8523,0,0,0,.093.37c.0225.0652.0469.1264.0686.177a.4023.4023,0,0,0,.0729.1186c.0228.02.1008.1.1745.1832a1.1806,1.1806,0,0,1,.1568.2076,1.8857,1.8857,0,0,1,.1344.4666c.0207.1242.0418.2715.0732.3984.0045.0176.01.0353.0154.0534C35.9557,14.9905,35.9276,14.9487,35.9009,14.9145ZM37.2119,9.11a.1.1,0,0,0,.0863.0494c.0341-.0015.0464-.0075.0538-.0068.0055.0013.004-.0007.011.0053a.7728.7728,0,0,1,.15.2449.2485.2485,0,0,0,.1456.1146.24.24,0,0,1,.075.0354c-.01.0123-.0291.0336-.0488.0556a.2093.2093,0,0,0-.0689.1387.1449.1449,0,0,0,.0525.1082.6587.6587,0,0,1,.1053.2628c.0263.1118.0422.2252.05.28a.3138.3138,0,0,1-.1048.0426.7994.7994,0,0,1-.18.0243c-.0159,0-.0283-.002-.0352-.0023-.0772-.0123-.3713-.1276-.4743-.163a.4583.4583,0,0,1-.0543-.2229.24.24,0,0,1,.0078-.0679.2527.2527,0,0,0,.0345.0016A.235.235,0,0,0,37.179,9.95a2.0616,2.0616,0,0,0,.1444-.148.1737.1737,0,0,0,.0515-.1168.1618.1618,0,0,0-.07-.1274,1.0824,1.0824,0,0,0-.32-.1258l-.0019-.002a.9142.9142,0,0,1-.1646-.2156c-.0638-.1022-.1237-.2109-.1578-.2678a.1469.1469,0,0,1-.0194-.0752.3644.3644,0,0,1,.1575-.2635L36.8,8.6067l.0147-.001c.0493-.003.1571.0419.2657.0433a.22.22,0,0,0,.1352-.0406c.1065-.0782.2111-.171.2574-.21a.4849.4849,0,0,1,.1536.0413.241.241,0,0,1,.1073.0714.8536.8536,0,0,0,.1047.1607c.0185.0237.0337.0466.0444.0635l.0013.0047a.46.46,0,0,1-.1525.0282.1543.1543,0,0,1-.112-.0319.1765.1765,0,0,0-.1376-.0627.3188.3188,0,0,0-.2856.3044.3759.3759,0,0,0-.0019.0451A.1675.1675,0,0,0,37.2119,9.11Zm4.6139-4.8453a.2877.2877,0,0,1-.1169.0271c-.0658-.0014-.0989-.0276-.1023-.0478a.1716.1716,0,0,0-.1424-.13.1706.1706,0,0,1,.0341-.0127,1.0722,1.0722,0,0,1,.233-.051.0677.0677,0,0,1,.0355.0063c0,.0018.001-.0034.004.0143a.3789.3789,0,0,0,.05.1492l.0194.0366Zm.8828-.3619-.002.0027a.0526.0526,0,0,1-.03.01c-.0157-.0042-.0334.0023-.0456-.0747a.3264.3264,0,0,0-.0576-.1891.2711.2711,0,0,0-.0786-.06c.0441.0218.0844.0422.1161.06a.4487.4487,0,0,1,.043.0274l.009.0082V3.6867a.4475.4475,0,0,1,.05.1833A.1068.1068,0,0,1,42.7086,3.9029ZM30.4158,9.5445a.2038.2038,0,0,0-.1722.1067.3758.3758,0,0,0-.0515.1872.2289.2289,0,0,0,.0595.1648.2226.2226,0,0,0,.1558.0738.2447.2447,0,0,0,.1972-.1378l-.063-.0376.063.0371a.2227.2227,0,0,0,.0308-.1143.3163.3163,0,0,0-.067-.186A.2074.2074,0,0,0,30.4158,9.5445ZM24.65,3.3688c.0142-.0009.0294-.0023.046-.0023.0728-.0009.16.0164.24.0171a.2436.2436,0,0,0,.129-.03.1593.1593,0,0,0,.0675-.1371l-.001-.0106-.0732.0017.0732-.0037c-.0016-.0366-.0023-.0738-.0023-.1108a.7979.7979,0,0,1,.0464-.3187.4854.4854,0,0,1,.0656-.09.1946.1946,0,0,0,.0611-.1185.1.1,0,0,0-.0551-.0886.164.164,0,0,0-.0822-.0191h-.026c-.017,0-.0167-.0007-.02-.0024a.1516.1516,0,0,1-.0341-.0614.2133.2133,0,0,1-.0123-.0693.3141.3141,0,0,1,.1146-.21c.04-.04.1424-.16.2641-.2838a1.2012,1.2012,0,0,1,.33-.2661.4432.4432,0,0,0,.3016-.3622.1622.1622,0,0,0-.1017-.1532.9741.9741,0,0,0-.3547-.0837.4321.4321,0,0,0-.3134.1226c-.08.08-.1439.1547-.2.2043a.2027.2027,0,0,1-.2139.0656c-.0681-.017-.116-.08-.1625-.1757a1.7387,1.7387,0,0,0-.15-.3.7714.7714,0,0,1-.103-.3562.7863.7863,0,0,0-.0364-.18A.1573.1573,0,0,0,24.3015.23a.1332.1332,0,0,0-.0334.0035c-.1027.02-.1458.0275-.1648.0311a1.2177,1.2177,0,0,0-.222-.0226.541.541,0,0,0-.1357.0146.8019.8019,0,0,0-.1671.0669.1109.1109,0,0,0,.0036-.0265.1319.1319,0,0,0-.0745-.1094.2627.2627,0,0,0-.0971-.0358c-.2044-.0266-.5335-.1334-.8058-.15C22.5873.0006,22.57,0,22.5544,0c-.1981.0017-.3247.0649-.4944.0688a1.4542,1.4542,0,0,0-.8131.1534.7551.7551,0,0,1-.2506.1126c-.0375.0111-.0731.0185-.1014.0267a.2926.2926,0,0,0-.0391.0109.1007.1007,0,0,0-.05.0332,1.6417,1.6417,0,0,0-.138.2518A.6936.6936,0,0,1,20.61.7549l-.0011.0012a.678.678,0,0,1-.0591-.11.4335.4335,0,0,0-.05-.08.1368.1368,0,0,0-.1058-.0531A.158.158,0,0,0,20.3.5473.3092.3092,0,0,0,20.2085.82V.8291a.3694.3694,0,0,1-.0373.2039.2652.2652,0,0,1-.2233.0859.3291.3291,0,0,1-.1523-.03.6177.6177,0,0,0-.3917-.0953c-.0484,0-.1028.0017-.1657.0063a1.6844,1.6844,0,0,0-.4606.0932.67.67,0,0,0-.17.0868.1857.1857,0,0,0-.0857.1461.13.13,0,0,0,.0192.0723.0311.0311,0,0,1,.005.016c0,.0028-.0012.01-.02.0231a.1249.1249,0,0,1-.0656.02.08.08,0,0,1-.0166-.0016h0a.1313.1313,0,0,0-.1-.0388.4028.4028,0,0,0-.2143.0814.2838.2838,0,0,0-.128.2076l.0027.0229.0015.033a.222.222,0,0,1-.0266.11.058.058,0,0,1-.052.033l-.0222-.0023a.26.26,0,0,0-.0669-.0087.2837.2837,0,0,0-.2788.2632.3748.3748,0,0,1-.14.0795c-.0376.013-.074.0243-.1026.032l-.0368.0086-.0074.0013h-.0282a1.39,1.39,0,0,0-.1889.0117.4132.4132,0,0,0-.1016.0269.1169.1169,0,0,0-.0755.1051.1427.1427,0,0,0,.0581.1072.2829.2829,0,0,0,.2036.0735l.0254-.001a.3531.3531,0,0,1,.0916.01c.0258.0034.0832.06.13.1276.0528.0683.0814.1365.155.1791a.212.212,0,0,0,.09.0206.25.25,0,0,0,.2079-.1144.45.45,0,0,0,.0348-.0716.1918.1918,0,0,0,.0788.0661.2893.2893,0,0,0,.1185.0205c.1216-.0007.2743-.039.32-.0372h.004c.0341.0052.15.0243.2715.0508a1.2738,1.2738,0,0,1,.2828.0842,2.4715,2.4715,0,0,0,.2533.1041.3487.3487,0,0,1,.1806.1233,1.4087,1.4087,0,0,1,.0681.3575c.0089.0745.0159.1463.0251.2059a.3357.3357,0,0,0,.0408.1472.0961.0961,0,0,0,.0752.0371.137.137,0,0,0,.0266-.0043.4273.4273,0,0,0-.0206.13.3336.3336,0,0,0,.0348.155.1452.1452,0,0,0,.122.0889.82.82,0,0,1,.0938.0031c-.0133.0182-.03.0406-.0447.0631a.2862.2862,0,0,0-.0635.1539l.0005.0168a1.9052,1.9052,0,0,0,.1635.4283.3435.3435,0,0,0,.1615.1075l.0177.0068a.14.14,0,0,0-.0092.0449.1285.1285,0,0,0,.0162.06c.0182.0314.0469.1.0832.1672a.3928.3928,0,0,0,.1543.1743,1.406,1.406,0,0,1,.2032.1408.663.663,0,0,1,.1513.153.119.119,0,0,0,.1131.0745.3681.3681,0,0,0,.1685-.0585c.0137-.0068.0251-.0138.0364-.02.0064.023.0143.05.0238.0769a.195.195,0,0,0,.1551.1411c.0165.0011.0321.002.0471.002h.0059a.37.37,0,0,0,.27-.1448.5019.5019,0,0,0,.107-.3791c.0029-.0357.0047-.0672.0074-.084l.009.0017a.2585.2585,0,0,0,.08.0128.1662.1662,0,0,0,.1336-.0588.2072.2072,0,0,0,.0441-.137l0-.0243c-.0076-.0757-.0346-.1413-.0323-.1705,0-.0133.002-.0127.0023-.0145a.0944.0944,0,0,1,.0468-.017.6363.6363,0,0,0,.2449-.1123c.0612-.0424.1035-.0663.1252-.0635.0625-.0012.2256.0246.344.0246A.4317.4317,0,0,0,22.7,4.844a.1265.1265,0,0,0,.0852-.0517c.0182-.0307.0609-.1053.1107-.1744a.7512.7512,0,0,1,.0729-.0876.1381.1381,0,0,1,.0282-.0222l.0075-.0043v0c.0923-.0118.3418-.0338.568-.0787a1.5462,1.5462,0,0,0,.3309-.1217,1.1114,1.1114,0,0,1,.1815-.0776h.001a.8866.8866,0,0,0,.0953.006.4733.4733,0,0,0,.1063-.01.153.153,0,0,0,.0546-.0224.0949.0949,0,0,0,.043-.0786.1083.1083,0,0,0-.0184-.056.2576.2576,0,0,0,.0441.0035.2981.2981,0,0,0,.0781-.01.2374.2374,0,0,0,.1905-.2359.2332.2332,0,0,0-.04-.1351,2.34,2.34,0,0,1-.0851-.2187.1.1,0,0,1-.01-.04A.035.035,0,0,1,24.5569,3.4.18.18,0,0,1,24.65,3.3688Zm-4.7153.31a.1944.1944,0,0,0-.0483-.0055.17.17,0,0,0-.054.0063l.0222-.0356.0189-.002a.231.231,0,0,1,.12.0368Zm.25.3126a.7447.7447,0,0,1-.0129.0738c-.0125-.0063-.0225-.01-.03-.0138a.614.614,0,0,0,.0267-.1129.13.13,0,0,1,.0167.0512Zm3.8584-.189a.2263.2263,0,0,1,.0247-.0765l.01-.0187a.2744.2744,0,0,1,.0543.0175c.0358.0175.0445.0331.0432.0418v.0056l-.0007.0233a.3578.3578,0,0,0,.0047.0582A.2916.2916,0,0,0,24.0433,3.8028Zm2.0125,1.401a.3909.3909,0,0,1,.119-.0328c.058-.0088.111-.0109.111-.0109a.072.072,0,0,0,.0458-.02.85.85,0,0,0,.0812-.0857.3339.3339,0,0,0,.0892-.1918.1292.1292,0,0,0-.0367-.0933h0a.7372.7372,0,0,0-.3793-.1665A.1181.1181,0,0,0,26.0618,4.6c-.1287.0093-.1843.0812-.34.08a2.9147,2.9147,0,0,0-.2914.04c-.0235-.0013-.0229-.0013-.0339-.0133a.57.57,0,0,0-.3791-.1289.2979.2979,0,0,0-.076.0081.1156.1156,0,0,0-.0781.0569.2065.2065,0,0,1-.0364.0484.1718.1718,0,0,0-.04.1108.3313.3313,0,0,0,.0387.1392,1.23,1.23,0,0,0,.1034.1845.193.193,0,0,0,.1483.0907l.021-.0007a.5866.5866,0,0,1,.0949-.0073.4541.4541,0,0,1,.1119.012.1675.1675,0,0,1,.03.0123l.0019.0015a.2372.2372,0,0,0,.2276.1782h.004a.3585.3585,0,0,0,.122-.0233c.0776-.0267.1506-.0486.2126-.0746A.3084.3084,0,0,0,26.0558,5.2038Zm11.245,15.0677a.3093.3093,0,0,0-.1611-.2161l-.0239.0689.0239-.0689a.2066.2066,0,0,0-.0692-.0125.1892.1892,0,0,0-.1394.0641c-.09.1048-.1238.2655-.21.3739a2,2,0,0,1-.1885.2153.5949.5949,0,0,1-.0732.0606l-.0214.0119-.02-.0021a.39.39,0,0,0-.2075.0863.3314.3314,0,0,0-.139.26.3434.3434,0,0,0,.0235.1227.8583.8583,0,0,1,.0624.3078.377.377,0,0,1-.0645.2356.2282.2282,0,0,0-.0465.15c.004.1617.0909.3683.0886.489,0,.0117-.0012.022-.002.0319a.5041.5041,0,0,0-.0074.0839.2954.2954,0,0,0,.0818.2176.3259.3259,0,0,0,.2364.0812h.0061a.37.37,0,0,0,.26-.0872.6764.6764,0,0,0,.1514-.2595c.0876-.23.1019-.4472.18-.6132a2.4669,2.4669,0,0,0,.118-.3773c.032-.1305.062-.2559.0775-.2917a1.95,1.95,0,0,0,.1214-.585c0-.017-.0017-.0333-.0022-.0486A1.3557,1.3557,0,0,0,37.3008,20.2715Zm11.4115-.4766.0079,0a.1727.1727,0,0,0,.1629-.1647l0-.0219a.1991.1991,0,0,0-.0592-.1451.1872.1872,0,0,0-.3115.0962h0a.2335.2335,0,0,0-.0037.0411A.2.2,0,0,0,48.7123,19.7949Zm-32.07-6.0667a.31.31,0,0,0-.1059-.191.3146.3146,0,0,0-.2076-.1076.1547.1547,0,0,0-.0268.002h-.004a.4.4,0,0,1-.1621-.0659,1.0611,1.0611,0,0,1-.1862-.1459.648.648,0,0,0-.4586-.14,1.2256,1.2256,0,0,0-.2631.0624c-.0958.0294-.1805.059-.1805.059a.0711.0711,0,0,0-.0488.0632.1986.1986,0,0,0,.0641.1712.2369.2369,0,0,0,.1329.0318c.0535-.0007.1115-.0073.17-.0073.0778,0,.1758-.0064.2649-.0064a.8787.8787,0,0,1,.1444.0094.2074.2074,0,0,1,.04.0113l.0073.004h0a.8112.8112,0,0,0,.2029.1675,1.7488,1.7488,0,0,1,.1839.1281.39.39,0,0,0,.2493.0784.3017.3017,0,0,0,.0983-.0144.1229.1229,0,0,0,.0829-.086l-.0724-.016.0724.0155A.0934.0934,0,0,0,16.6419,13.7282Zm-.4967.3851h0a.1956.1956,0,0,0-.1367.2039.2552.2552,0,0,0,.0367.1378.162.162,0,0,0,.1356.08h.0018a.169.169,0,0,0,.0592-.01.1932.1932,0,0,0,.1327-.1892.2158.2158,0,0,0-.1922-.2267A.1488.1488,0,0,0,16.1452,14.1133Zm.16-1.2177a.1832.1832,0,0,0-.1942-.1672.1539.1539,0,0,0-.0306.0022.1559.1559,0,0,0-.0944.2671.1793.1793,0,0,0,.125.0494h.0017a.2536.2536,0,0,0,.05-.0054l-.014-.0717.0148.0717A.16.16,0,0,0,16.3053,12.8956Zm31.5654,6.5753a.1175.1175,0,0,0,.06-.0856l-.0725-.0108.0725.0089.002-.0217a.3241.3241,0,0,0-.1092-.2083.31.31,0,0,0-.1886-.1028,1.7158,1.7158,0,0,1-.2176-.0482c-.0956-.0243-.182-.0487-.182-.0487a.0727.0727,0,0,0-.0542.0048c-.0352.0214-.0861.0338-.1349.0654l-.015-.0112a.5022.5022,0,0,0-.2684-.0662.2681.2681,0,0,1-.0731-.011c-.0131-.006-.0152-.006-.0235-.0229a.2066.2066,0,0,0-.1779-.1526.15.15,0,0,0-.0391.0058.938.938,0,0,1,.0838-.417h0a.2839.2839,0,0,0,.0513-.1619.2055.2055,0,0,0-.0378-.1237.15.15,0,0,0-.1267-.0642.13.13,0,0,0-.0291.0023h.0014a.0769.0769,0,0,1-.0323-.02c-.0647-.0528-.1586-.2123-.3013-.3314a2.6028,2.6028,0,0,1-.4777-.4555,4.42,4.42,0,0,0-.4953-.4733.5771.5771,0,0,0-.3728-.1758.168.168,0,0,0-.0472.006.12.12,0,0,0-.0982.1151.2791.2791,0,0,0,.0618.1467,1.7226,1.7226,0,0,0,.1748.1937c.0572.0559.112.1071.1163.1124.0254.0309.1259.1344.2244.2572a.7405.7405,0,0,1,.1778.3131,1.11,1.11,0,0,0,.1427.4189,1.5562,1.5562,0,0,0,.2012.3175c.0427.04.1445.116.2464.2031a.9144.9144,0,0,1,.2126.2226.2323.2323,0,0,0,.1662.1537.3332.3332,0,0,0,.1357.2432.5747.5747,0,0,0,.3045.07.697.697,0,0,0,.0859-.0056,1.0226,1.0226,0,0,0,.1474-.028.4427.4427,0,0,0,.0495-.0181l.0074.0075a.4373.4373,0,0,0,.3439.1756.6337.6337,0,0,0,.065-.0036l.0291-.001c.0951-.0014.2253.0409.3268.0421A.1788.1788,0,0,0,47.8707,19.4709Zm2.1975-2.2159a.8808.8808,0,0,0-.1735.479.2674.2674,0,0,0,.02.11.1445.1445,0,0,0,.0913.083.14.14,0,0,0,.0408.0058c.1285-.0122.1723-.1211.2173-.2244a1.01,1.01,0,0,0,.0655-.3359.4.4,0,0,0-.01-.095.1355.1355,0,0,0-.0637-.0868h0a.1167.1167,0,0,0-.0532-.0133A.1821.1821,0,0,0,50.0682,17.255ZM51.86,10.0393c-.0418.101-.08.196-.1132.2632a.37.37,0,0,1-.0424.0722l-.0035.0053a.3725.3725,0,0,0-.0879.0256,1.1434,1.1434,0,0,0-.3838.231.123.123,0,0,1-.0426.0058c-.0945.0018-.2617-.0521-.3787-.0534a.1454.1454,0,0,0-.1292.0557,1.806,1.806,0,0,1-.2274.2371.4622.4622,0,0,1-.1111.0367.1831.1831,0,0,0-.1412.1823.3438.3438,0,0,0,.0065.0667,1.0679,1.0679,0,0,0,.1043.2875c.0468.0759.0933.1467.1915.1537a.2558.2558,0,0,0,.1824-.0782.3413.3413,0,0,0,.0879-.2452V11.28a.5067.5067,0,0,1,.064.0247.3991.3991,0,0,0,.1417.038l.0244-.0009a.2968.2968,0,0,0,.2056-.1862.2225.2225,0,0,0,.07.0333.3092.3092,0,0,0,.0906.0143.2249.2249,0,0,0,.1785-.0842.2439.2439,0,0,0,.0463-.1046,1.2883,1.2883,0,0,1,.1487-.0649.8108.8108,0,0,0,.1941-.0928,1.2007,1.2007,0,0,1,.1486-.0839.9123.9123,0,0,0,.0962-.06.1755.1755,0,0,0,.0719-.0955c.009-.0537.0077-.1567.0154-.2646a.9912.9912,0,0,1,.0157-.139.2032.2032,0,0,1,.01-.0342.3982.3982,0,0,0,.0689-.0326.1529.1529,0,0,0,.0675-.1321.4617.4617,0,0,0-.0578-.1943,2.6779,2.6779,0,0,1-.0968-.2549.6133.6133,0,0,0-.0244-.0585,1.0882,1.0882,0,0,1,.1726-.0331,1.6618,1.6618,0,0,0,.3834-.0829h.0093a.5354.5354,0,0,0,.1629-.0219.1838.1838,0,0,0,.1454-.17.2015.2015,0,0,0-.006-.0486.2908.2908,0,0,0-.1942-.1885.6817.6817,0,0,0-.2273-.0391.3133.3133,0,0,0-.055.0032c-.0139-.012-.0429-.0409-.0729-.07a.2577.2577,0,0,0-.1686-.0818.1381.1381,0,0,0-.0467.0068A.26.26,0,0,0,52.2,8.94a.5054.5054,0,0,0-.0353.13c-.0259.015-.0835.0433-.136.0727-.0642.0411-.1462.0784-.1563.1882a.15.15,0,0,0,.0447.1038.2832.2832,0,0,0,.0561.0477.4772.4772,0,0,0-.0613.25A1.05,1.05,0,0,1,51.86,10.0393Zm-4.2127,6.7922a.77.77,0,0,0-.0555.1108c-.0067.0153-.0127.0273-.0171.0353l-.0045.0079a.4621.4621,0,0,1-.1953.0837.3277.3277,0,0,0-.2.2472l-.0473-.0319a.3056.3056,0,0,0-.1514-.0639.107.107,0,0,0-.0844.0391.2594.2594,0,0,0-.0411.169,1.7438,1.7438,0,0,0,.1132.5536.8791.8791,0,0,0,.24.3454.4622.4622,0,0,0,.2479.1355.9947.9947,0,0,1,.285.03.8069.8069,0,0,0,.2273.0319.4378.4378,0,0,0,.1683-.0271.1621.1621,0,0,0,.107-.1487l0-.0126c-.0053-.0588-.0114-.1225-.0114-.186a.4184.4184,0,0,1,.09-.2941c.0539-.0586.1122-.1088.1615-.1681a.3458.3458,0,0,0,.0869-.2255.4132.4132,0,0,0-.0216-.13,3.1637,3.1637,0,0,1-.1422-.348.0318.0318,0,0,1,.0122-.0279,1.1837,1.1837,0,0,1,.135-.1085.2036.2036,0,0,0,.0955-.16.0861.0861,0,0,0-.0184-.0579.0883.0883,0,0,0-.0655-.0309.2018.2018,0,0,0-.0736.0214.1158.1158,0,0,1-.0381.0105l-.0028-.001c-.0045,0-.0062,0-.0226-.0239a.626.626,0,0,1-.0441-.2389.118.118,0,0,0-.0333-.08.1094.1094,0,0,0-.079-.0323.2789.2789,0,0,0-.1707.0844.2969.2969,0,0,0-.1014.1728l-.0015.0233a.3036.3036,0,0,0,.0249.1093l.0063.0165a.3926.3926,0,0,1-.0681.0029A.3456.3456,0,0,0,47.6477,16.8315Zm1.0884-3.9106a.7057.7057,0,0,0-.0779.2971.2694.2694,0,0,0,.0254.12.1333.1333,0,0,0,.1143.0722h.0179c.1158-.02.1713-.1151.2255-.2132a.75.75,0,0,0,.0844-.3131.2231.2231,0,0,0-.0233-.1081.1267.1267,0,0,0-.1111-.0653.19.19,0,0,0-.0291.0031h0A.3636.3636,0,0,0,48.7361,12.9209Zm-.1785,1.6638a.3429.3429,0,0,0,.03.1311h0a.8439.8439,0,0,0,.2034.2614c.0362.0344.0677.0649.0877.0883l.017.022c-.07.08-.2714.2345-.313.4212a.23.23,0,0,0-.002.0271.0964.0964,0,0,0,.0194.061.09.09,0,0,0,.0664.032h.0018a.225.225,0,0,0,.13-.0638,2.1187,2.1187,0,0,0,.3524-.3874.171.171,0,0,1,.1368-.0672.83.83,0,0,0,.0985-.0143.1517.1517,0,0,0,.1053-.0755l.0417-.0835a.0744.0744,0,0,0-.05-.1045,2.0821,2.0821,0,0,1-.2681-.0795.2084.2084,0,0,0-.0779-.0146.4344.4344,0,0,0-.0989.0146.455.455,0,0,1,.0107-.0463.322.322,0,0,1,.1213-.1838.2549.2549,0,0,0,.1247-.2044.3007.3007,0,0,0-.0072-.0616.4085.4085,0,0,0-.1368-.2428.2662.2662,0,0,0-.159-.0668.1154.1154,0,0,0-.112.0841c-.02.1044.0086.1766-.06.2328-.0523.043-.11.0786-.1612.1235A.2589.2589,0,0,0,48.5576,14.5847Z" style="fill:#222d57"/><path d="M36.2182,3.9062a1.8631,1.8631,0,0,0-1.863,1.863c0,1.8632,1.863,4.0987,1.863,4.0987s1.8633-2.2355,1.8633-4.0987A1.8633,1.8633,0,0,0,36.2182,3.9062Zm0,3.0042a1.1411,1.1411,0,1,1,1.1411-1.1412A1.141,1.141,0,0,1,36.2182,6.91Z" style="fill:#fab83f"/><path d="M51.4569,16.0971A1.8632,1.8632,0,0,0,49.5938,17.96c0,1.8631,1.8631,4.0987,1.8631,4.0987S53.32,19.8233,53.32,17.96A1.8633,1.8633,0,0,0,51.4569,16.0971Zm0,3.0042A1.1411,1.1411,0,1,1,52.598,17.96,1.141,1.141,0,0,1,51.4569,19.1013Z" style="fill:#fab83f"/><path d="M17.9318,13.7267a1.8631,1.8631,0,0,0-1.863,1.863c0,1.8632,1.863,4.0987,1.863,4.0987s1.8633-2.2355,1.8633-4.0987A1.8633,1.8633,0,0,0,17.9318,13.7267Zm0,3.0041A1.1411,1.1411,0,1,1,19.0729,15.59,1.1409,1.1409,0,0,1,17.9318,16.7308Z" style="fill:#fab83f"/></g></g></svg>