<svg xmlns="http://www.w3.org/2000/svg" viewBox="0 0 4.397 4.3939"><g id="Capa_2" data-name="Capa 2"><g id="Layer_1" data-name="Layer 1"><path d="M4.3949,3.4678a.2127.2127,0,0,1-.0651.1861l-.619.6145a.354.354,0,0,1-.1095.079.4436.4436,0,0,1-.1327.0418l-.028.0028c-.0153.0009-.0357.0019-.06.0019a2.1238,2.1238,0,0,1-.2863-.03A2.1643,2.1643,0,0,1,2.61,4.2146a4.0473,4.0473,0,0,1-.6493-.3559,4.8424,4.8424,0,0,1-.7727-.6516,5.0884,5.0884,0,0,1-.54-.6145A4.359,4.359,0,0,1,.3033,2.05,2.9333,2.9333,0,0,1,.108,1.599,2.3875,2.3875,0,0,1,.0194,1.25a1.1536,1.1536,0,0,1-.0187-.23C.0038.9635.0056.9324.0056.9261A.4534.4534,0,0,1,.0474.7937.3425.3425,0,0,1,.1265.6843L.7456.0652A.2055.2055,0,0,1,.8945,0a.1737.1737,0,0,1,.1072.0351.3219.3219,0,0,1,.079.0859l.4982.9448a.2263.2263,0,0,1,.0231.1629.2889.2889,0,0,1-.079.149l-.2281.2283a.0763.0763,0,0,0-.0163.03.1165.1165,0,0,0-.007.0352.8454.8454,0,0,0,.0837.2236,2.0759,2.0759,0,0,0,.1724.2721,3.02,3.02,0,0,0,.33.37A3.0892,3.0892,0,0,0,2.23,2.87a2.183,2.183,0,0,0,.2724.1747.7182.7182,0,0,0,.1677.0672l.0579.0118a.1193.1193,0,0,0,.03-.0071.0794.0794,0,0,0,.03-.0161l.2655-.27A.2863.2863,0,0,1,3.25,2.7557a.2446.2446,0,0,1,.1256.0278H3.38l.8982.5306A.2344.2344,0,0,1,4.3949,3.4678Z" style="fill:#ffb83b"/></g></g></svg>